/* XPM */
static char * dead_slime_xpm[] = {
"32 32 5 1",
" 	c #53A03B",
".	c #1D235D",
"+	c #4D8AB3",
"@	c #65B1B8",
"#	c #3D7636",
"                                ",
"                                ",
"                                ",
"                                ",
"                                ",
"                                ",
"                                ",
"                                ",
"                                ",
"                                ",
"                                ",
"                                ",
"                                ",
"          ...                   ",
"         .+@+.        ...       ",
"         ..@@+.      .@+.       ",
"        .+@.@@.#     .+##       ",
"       #.@+.###      ###        ",
"        #####                   ",
"                                ",
"                                ",
"                                ",
"                                ",
"                                ",
"                                ",
"                                ",
"                                ",
"                                ",
"                                ",
"                                ",
"                                ",
"                                "};
