/* XPM */
static char * slime_attack_xpm[] = {
"32 32 10 1",
" 	c #53A03B",
".	c #1D235D",
"+	c #4D8AB3",
"@	c #65B1B8",
"#	c #FFFFFF",
"$	c #000000",
"%	c #33418A",
"&	c #9E2E46",
"*	c #425B9E",
"=	c #3D7636",
"                                ",
"                                ",
"              ....              ",
"             .+@@+..            ",
"            .+@@@@@+.           ",
"           .+@@@@@@@+.          ",
"           .+@@#$@@$@.          ",
"          .+@@@$$@@$@.          ",
"          .+@@@@@@@@@.          ",
"          .++%%@@@@@%.          ",
"          .++@%%%%%%@.          ",
"           .++@&&%%@+.          ",
"            .*+++++*.           ",
"             .......            ",
"                                ",
"                                ",
"                                ",
"                                ",
"                                ",
"           ==========           ",
"          ============          ",
"          ============          ",
"          ============          ",
"           ==========           ",
"                                ",
"                                ",
"                                ",
"                                ",
"                                ",
"                                ",
"                                ",
"                                "};
