/* XPM */
static char * slime_xpm[] = {
"32 32 10 1",
" 	c #53A03B",
".	c #1D235D",
"+	c #425B9E",
"@	c #4D8AB3",
"#	c #65B1B8",
"$	c #FFFFFF",
"%	c #000000",
"&	c #33418A",
"*	c #3D7636",
"=	c #9E2E46",
"                                ",
"                                ",
"                                ",
"                                ",
"                                ",
"                                ",
"                                ",
"                                ",
"                                ",
"                                ",
"                                ",
"                                ",
"            ........            ",
"           .+@@@@@@@.           ",
"          .+@@######+.          ",
"          .@@########.          ",
"          .@@##$%##%#+.         ",
"         .+@###%%##%#@.         ",
"         .+@#&&#####&@.         ",
"         .+@##&&&&&&#@.         ",
"        *.++@##==&&#@+.*        ",
"        **.++@@@@@@@++.*        ",
"        ****+++++++++.**        ",
"         **************         ",
"                                ",
"                                ",
"                                ",
"                                ",
"                                ",
"                                ",
"                                ",
"                                "};
