/* XPM */
static char * 000010010_xpm[] = {
"32 32 6 1",
" 	c #509B66",
".	c #21110D",
"+	c #755338",
"@	c #9D7658",
"#	c #503625",
"$	c #3B7251",
"                                ",
"                                ",
"                                ",
"                                ",
"                                ",
"                                ",
"                                ",
"                                ",
"                                ",
"             .......            ",
"            .+@@@@@+.           ",
"           .+@@+++@@+.          ",
"           .+@@+++@@+.          ",
"           .#+@@@@@+#.          ",
"           ..#+++++#..          ",
"            .........           ",
"            .##+#++#.           ",
"            .#+@@@+#.           ",
"            .#.@@@.#.           ",
"           $.#.@@@.#.           ",
"           $.#.@@@.#.$          ",
"          $$$..@@@..$$$         ",
"            $$.@@@.$$           ",
"             $.@@@.$            ",
"              .@@@.             ",
"             .......            ",
"            .+@@@@@+.           ",
"           .+@@+++@@+.          ",
"           .+@@+++@@+.          ",
"           .#+@@@@@+#.          ",
"           ..#+++++#..          ",
"            .........           "};
