/* XPM */
static char * 000110010_xpm[] = {
"32 32 8 1",
" 	c #509B66",
".	c #21110D",
"+	c #9D7658",
"@	c #755338",
"#	c #503625",
"$	c #171C31",
"%	c #2D5443",
"&	c #3B7251",
"                                ",
"                                ",
"                                ",
"                                ",
"                                ",
"                                ",
"                                ",
"                                ",
"                                ",
"....         .......            ",
"+++@.       .@+++++@.           ",
"@@++@.     .@++@@@++@.          ",
"@@++@.     .@++@@@++@.          ",
"+++@#.     .#@+++++@#.          ",
"@@@#.........#@@@@@#..          ",
".....+++++++.........           ",
"#@@#.#@@###@.##@#@@#.           ",
"@#@#.@####@@.#@+++@#.           ",
"@#@#.###@@#@.#.+++.#.           ",
"@@@#.$.......#.+++.#.%          ",
"@@##.%     %.#.+++.#.%          ",
"#.#.%%%   %%%..+++..%%%         ",
"&&&&&       %%.+++.%%           ",
"             %.+++.%            ",
"              .+++.             ",
"             .......            ",
"            .@+++++@.           ",
"           .@++@@@++@.          ",
"           .@++@@@++@.          ",
"           .#@+++++@#.          ",
"           ..#@@@@@#..          ",
"            .........           "};
