/* XPM */
static char * player_attack_d_xpm[] = {
"32 32 16 1",
" 	c #222222",
".	c #483B3A",
"+	c #775C55",
"@	c #000000",
"#	c #573A23",
"$	c #402717",
"%	c #AC7B5D",
"&	c #21110D",
"*	c #C1AC8F",
"=	c #FFFFFF",
"-	c #787E97",
";	c #A4A8B5",
">	c #2C65B5",
",	c #1D438A",
"'	c #0D205E",
")	c #362E36",
"      ..        ......  ..      ",
"      ..        ......  ..      ",
"  ............................++",
"  ............................++",
"......@@@@.@@.................++",
"......@##$@#@@@...............++",
"......@@##$#$##@..............++",
".....@$#########@.............++",
"  ..@$###########@............++",
"  ..@$##$###$$###@............++",
"....@$$$$###$%%$#$@...........++",
"....@$#$$##$%%%%$$@...........++",
"  ..@$##%$#%&**&@$@.............",
"  ..@$$#%%$*&**&@@..............",
"  ...@$$%%%%****@.....=====...++",
"  ....@$@%%%%%%%@.......=====.++",
"@@@....@@##$--$@@........======.",
";;;@@..@**##-;;$%@........======",
";;;;;@@***$#$;;$%@........======",
"@;;;;;@***@##;;$@@........======",
".@;;;;;@@@$#>>>>,@.......=======",
"..@;;;;;;@@#>>',##@)....========",
"  .@@;;;;;;@@@@$##@)).==========",
"  ...@@==;;;;;;@))=============.",
"  ......======================..",
"  ........==================....",
"  ...........===========......++",
"  ............................++",
"  ............................++",
"  ............................++",
"++++++....++..++++++++..++++++++",
"++++++....++..++++++++..++++++++"};
