/* XPM */
static char * enter_xpm[] = {
"32 32 26 1",
" 	c None",
".	c #000000",
"+	c #414B66",
"@	c #677598",
"#	c #8F9AB0",
"$	c #242A3D",
"%	c #573A23",
"&	c #402717",
"*	c #21110D",
"=	c #AC7B5D",
"-	c #C1AC8F",
";	c #755338",
">	c #342319",
",	c #503625",
"'	c #787E97",
")	c #A4A8B5",
"!	c #2C65B5",
"~	c #3B2B2B",
"{	c #1D438A",
"]	c #282027",
"^	c #0E1221",
"/	c #9D7658",
"(	c #735748",
"_	c #1B202F",
":	c #323A50",
"<	c #515D79",
" ... .... ...  ..... .... ...  .",
".+++.@@@+.@@+..+@@@+.@@@+.@@+..@",
"+@@@+@@@@+@@@.+@@@@@+@@@@+@@@.@@",
"@@@@@@@@@+@@@+@@@@@@@@@@@+@@@+@@",
"@@@@@#@@@$+@@$@@@@@@@#@@@$+@@$@@",
"@@##@+##+@@@++@@####@+##+@@@@@++",
"@#@@#$++##@@@+@#@@@@#$++######@+",
"+@@@@$$$@@@....@..@@@$$$@@@@@@$$",
"@@@++@$@@@+.%%&.%...+@$@@@@@+++$",
"@+++++$@@++..%%&%&%%.+$@@@+++++$",
"+@++++$++@.&%%%%%%%%%.$++++@+++$",
"$++++$$$@.&%%%%%%%%%%%.@++++++$$",
"$$@@@+$$*.&%%&%%%&&%%%.*$$$$$$$$",
"$@@++@$+*.&&&&%%%&==&%&.@@@@@@@$",
"@++@+++@*.&%&&%%&====&&.@@@@@@@@",
"++++++@@*.&%%=&%=*--*.&.@++++++@",
"+++++$@+*.&&%==&-*--*..*++++++++",
"$$$$$$$+*;.&&==------.;*+++++++$",
"@@$$+@@@*;>.&&==----=.;*@+$$@@@@",
"+@@$@@@+*;>,.&&=====.>;*+@$@@@++",
"@++$@+++*;>,.&&%'''&.>;*++$@++++",
"+++$$+++*;>,.&%%'')&.>;*+$$+++++",
"++$$$$$$*;>.--%%'))&=.;*$$$$++++",
"+@@@@$$$*;>.--%%!!!&=.;*@@@@@@$$",
"@@@++@$@*;>~.{!!{!!..];*@@@@+++$",
"@+++++$@*.^^.&%..&%.^^^*@@+++++$",
"+@++++$+./(((((((((((((.+++@+++$",
"$++++$$..//(((((((((((/..+++++$$",
"$$@@@+_..//////////////..$$$$$$$",
"$@@++@_.////////////////.@@@@@@$",
"@++@++:.////////////////.<@@@@@@",
"........////////////////........"};
