/* XPM */
static char * f_player_five_xpm[] = {
"32 32 13 1",
" 	c #755338",
".	c #503625",
"+	c #000000",
"@	c #573A23",
"#	c #402717",
"$	c #AC7B5D",
"%	c #21110D",
"&	c #C1AC8F",
"*	c #787E97",
"=	c #A4A8B5",
"-	c #2C65B5",
";	c #1D438A",
">	c #563E35",
"            .               .   ",
"            .               .   ",
".... ..    ......... ..    .....",
"                                ",
"                                ",
"                                ",
"     .               .          ",
"........ ..    ......... ..    .",
" .         ++++ ++              ",
"           +@@#+@+++            ",
"           ++@@#@#@@+           ",
"          +#@@@@@@@@@+          ",
"...   ...+#@@@@@@@@@@@+.........",
"         +#@@#@@@##@@@+     .   ",
"         +####@@@#$$#@#+        ",
"         +#@##@@#$$$$##+        ",
"         +#@@$#@$%&&%+#+    .   ",
"         +##@$$#&%&&%++     .   ",
".... ..   +##$$&&&&&&+.    .....",
"           +##$$&&&&$+          ",
"            +##$$$$$+           ",
"           +##@@**=#++          ",
"     .    +&&#@@*==#$$+         ",
"........ .+&&#@@---#$$+. ..    .",
" .         ++;--;--+++          ",
"          >>+#@++#@+>>>         ",
"          >>>>>>>>>>>>>         ",
"           >>>>>>>>>>>          ",
"...   .............   ..........",
"            .               .   ",
"                                ",
"                                "};
