/* XPM */
static char * hearts_xpm[] = {
"32 32 5 1",
" 	c #509B66",
".	c #71193C",
"+	c #BC4952",
"@	c #9E2E46",
"#	c #3B7251",
"                                ",
"                                ",
"                                ",
"                                ",
"                                ",
"                                ",
"                                ",
"                                ",
"          .....  .....          ",
"          .....  .....          ",
"          .....  .....          ",
"        ..+++++..@@@@@..        ",
"        ..+++++..@@@@@..        ",
"        ..+++++++@@@@@..        ",
"        ..+++++++@@@@@..        ",
"        ..+++++++@@@@@..        ",
"          ..+++++@@@..          ",
"          ..+++++@@@..          ",
"        ####...@@...####        ",
"        ####...@@...####        ",
"        #######..#######        ",
"        #######..#######        ",
"        #######..#######        ",
"          ############          ",
"          ############          ",
"                                ",
"                                ",
"                                ",
"                                ",
"                                ",
"                                ",
"                                "};
