/* XPM */
static char * player_attack_r_sb_xpm[] = {
"32 32 24 1",
" 	c #53A03B",
".	c #414B66",
"+	c #677598",
"@	c #297C25",
"#	c #000000",
"$	c #573A23",
"%	c #402717",
"&	c #446266",
"*	c #47516D",
"=	c #395759",
"-	c #3D5160",
";	c #404D65",
">	c #3A555B",
",	c #AC7B5D",
"'	c #21110D",
")	c #C1AC8F",
"!	c #FFFFFF",
"~	c #787E97",
"{	c #A4A8B5",
"]	c #2C65B5",
"^	c #1D438A",
"/	c #0D205E",
"(	c #4C5773",
"_	c #313951",
"                                ",
"          ...                   ",
"      ....+++.@@     ...        ",
"    ..+++.++++..    .+++.@      ",
"   .++####+##++.@   .++++.@     ",
"  .+..#$$%#$###..  &*+++++.     ",
" .+++.##$$%$%$$#.  @@=++++.     ",
"@.+++#%$$$$$$$$$#.  @@-@.;>     ",
"@.++#%$$$$$$$$$$$#   @ @@@@     ",
"@@.+#%$$%$$$%%$$$#.             ",
" @@.#%%%%$$$%,,%$%#             ",
"  @@#%$%%$$%,,,,%%#             ",
" @  #%$$,%$,'))'#%#             ",
"    #%%$,,%)'))'##              ",
"     #%%,,,,))))#     !!!!!     ",
"      #%#,,,,,,,#.      !!!!!   ",
"###    ##$$%~~%##+.@     !!!!!! ",
"{{{##  #))$$~{{%,#+.@   .+!!!!!!",
"{{{{{##)))%$%{{%,#++.@@.++!!!!!!",
"#{{{{{#)))#$${{%##++...++.!!!!!!",
" #{{{{{###%$]]]]^#.....++!!!!!!!",
"  #{{{{{{##$]]/^$$#(+..+!!!!!!!!",
"   ##{{{{{{####%$$#((+!!!!!!!!!!",
"  .++##!!{{{{{{#_(!!!!!!!!!!!!! ",
" @.++++.!!!!!!!!!!!!!!!!!!!!!!@ ",
" @.+++++++!!!!!!!!!!!!!!!!!!@@  ",
" @@.+++++.@@ !!!!!!!!!!! @@     ",
"  @@.....@@@      @@@@@   @     ",
"   @@@@@@@  @        @          ",
"  @  @@ @                       ",
"      @                         ",
"                                "};
