/* XPM */
static char * player_attack_c_sb_xpm[] = {
"32 32 22 1",
" 	c #53A03B",
".	c #000000",
"+	c #573A23",
"@	c #402717",
"#	c #AC7B5D",
"$	c #21110D",
"%	c #C1AC8F",
"&	c #B6BEC8",
"*	c #755338",
"=	c #FFFFFF",
"-	c #787E97",
";	c #503625",
">	c #A4A8B5",
",	c #677598",
"'	c #342319",
")	c #3D7636",
"!	c #2C65B5",
"~	c #1D438A",
"{	c #0D205E",
"]	c #4C5773",
"^	c #1C1724",
"/	c #2E5734",
"                                ",
"                                ",
"                                ",
"       .... ..                  ",
"       .++@.+...                ",
"       ..++@+@++.               ",
"      .@+++++++++.              ",
"     .@+++++++++++.             ",
"     .@++@+++@@+++.             ",
"     .@@@@+++@##@+@.            ",
"     .@+@@++@####@@.$           ",
"     .@++#@+#$%%$.@.&$          ",
"     .@@+##@%$%%$..$$*$         ",
"      .@@####%%%%.$$$*$=====    ",
"       .@.#######.$$$*$  =====  ",
"....    ..++@--@..*&&;$   ======",
".>>>..  .%%++->>@#.,,'$    =====",
".>>>>>..%%%@+@>>@#.,,'$    =====",
" .>>>>>.%%%.++>>@..,,'$)   =====",
"  .>>>>>...@+!!!!~.,,'$)  ======",
"   .>>>>>>..+!!{~++.]'$) =======",
"    ..>>>>>>....@++.]^)=========",
"      ..==>>>>>>.//=============",
"         ====================== ",
"           ==================   ",
"              ===========       ",
"                                ",
"                                ",
"                                ",
"                                ",
"                                ",
"                                "};
