/* XPM */
static char * dragon_dungeon_xpm[] = {
"32 32 8 1",
" 	c #222222",
".	c #483B3A",
"+	c #775C55",
"@	c #3D734F",
"#	c #314152",
"$	c #4BA747",
"%	c #000000",
"&	c #D3BFA9",
"      ..        ......  ..      ",
"      ..        ......  ..      ",
"  ............................++",
"  ............................++",
"..............................++",
"..............................++",
"..............................++",
"......... .... ...............++",
"  .......  ...  ..............++",
"  ....... @  . @  ............++",
"......... @@@  ###     .......++",
".......... $$$$$$$$$$$$ ......++",
"  ........ $$$$$$$$$$$$ ........",
"  ........ $$$%%$$%$$$% ........",
"  ........ $$$%%$$@$$$@ ......++",
"  ........ $$$@@$$$$$$$ ......++",
"  ......... $$$$$$$$$$$ ........",
"  ......... $$$$$@###   ........",
"........... $$$$$&&& .........++",
"........... $$$$&&&& .........++",
"..........  $$$$&&&& .........++",
"......... $$........ .........++",
"  .......   ++++++++ ...........",
"  ........ $$+++++$$$ ..........",
"  ........ $          ..........",
"  ........  ....................",
"  ............................++",
"  ............................++",
"  ............................++",
"  ............................++",
"++++++....++..++++++++..++++++++",
"++++++....++..++++++++..++++++++"};
