/* XPM */
static char * dragon_gras_xpm[] = {
"32 32 9 1",
" 	c #509B66",
".	c #222222",
"+	c #3D734F",
"@	c #314152",
"#	c #4BA747",
"$	c #000000",
"%	c #D3BFA9",
"&	c #483B3A",
"*	c #775C55",
"                                ",
"                                ",
"                                ",
"                                ",
"                                ",
"                                ",
"                                ",
"         .    .                 ",
"         ..   ..                ",
"         .+.. .+..              ",
"         .+++..@@@.....         ",
"          .############.        ",
"          .############.        ",
"          .###$$##$###$.        ",
"          .###$$##+###+.        ",
"          .###++#######.        ",
"           .###########.        ",
"           .#####+@@@...        ",
"           .#####%%%.           ",
"           .####%%%%.           ",
"          ..####%%%%.           ",
"         .##&&&&&&&&.           ",
"         ...********.           ",
"          .##*****###.          ",
"          .#..........          ",
"          ..                    ",
"                                ",
"                                ",
"                                ",
"                                ",
"                                ",
"                                "};
