/* XPM */
static char * god_xpm[] = {
"96 96 6 1",
" 	c #509B66",
".	c #296640",
"+	c #082B0C",
"@	c #503625",
"#	c #755338",
"$	c #21110D",
"                                                                                                ",
"                                                                                                ",
"                                                                                                ",
"                                                                                                ",
"                                                                                                ",
"                                                                                                ",
"                                                                                                ",
"                                                                                                ",
"                                .    .    .          .    .                                     ",
"                .    .    .      . ..+   .+.  ..   ..+   .+.   .     .    .                     ",
"                 . ..+   .+.  .. ...++.  .++..++....++.  .++...    ..+   .+.   .                ",
"                 ...++.  .++..++...+@@+..+@#++#@+..+@@+..+#@++. ....++.  .++...                 ",
"             .  ...+@@+..+@#++#@+++###@++@######@++##@@++####+. +..+@@+..+#@++.                 ",
"              ..+++###@++@#############@@#######@#######@#####+.@++##@@++####+.  .+             ",
"              .+#######@@##############@#######################+@#######@#####+...++            ",
"             .+@#######@########################@######@#######################+++@@+           ",
"            .+##################@######@@######@@#####@@########@######@########@@@@+           ",
"         ....+##@######@@######@@####$$$@@###$$$@@###$$$@######@@#####@@########@@@+.           ",
"          ..+@@@@####$$$@@###$$$@$$$$...$$$$$...$$$$$...$$$$$$$$@@###$$$@######@@@#+..          ",
"           .+#@@@$$$$...$$$$$...$...............................$$$$$...$$$$$$$$@##++           ",
"           ..+#@$....................... ...   ......   ........................$##+.           ",
"          ...+#$........ ...   ...              ...       ...  ......   .........$#+.           ",
"           ..+#$..                                              ...       ...  ..$#+..          ",
"         ...+#$..                                                               .$#+..          ",
"          .+@##$.                                                               ..$@+.          ",
"          ..+@#$.                                                                .$+...         ",
"           ..+@$.                                                                $#+.           ",
"            .+@$.                                                                $#+.           ",
"            .+@$                                                                .$+.            ",
"            .+$.                                                                .$+.            ",
"            .+$.                                                                .$+.            ",
"           ..+@$                                                                $@+..           ",
"            .+@$.                                                               .$#+..          ",
"            .+@$                                                                ..$@+.          ",
"            .+$.                                                                 .$+...         ",
"            .+$.                                                                 $#+.           ",
"           ..+@$                                                                 $#+.           ",
"         ...+@@$                                                                .$+.            ",
"          .+##@$.                                                               .$+.            ",
"           .+##$.                                                               .$+.            ",
"            .+#$                                                                $@+..           ",
"            .+#$                                                                $@@+...         ",
"            .+$.                                                                $@##+.          ",
"           ..+$.                                                               .$##+..          ",
"           .+@$.                                                               .$##+.           ",
"          .+@$..                                                               .$##+.           ",
"          .+#$.                                                                ..$#+.           ",
"           .+#$                                                                 .$#+..          ",
"            .+$                                                                  $##+.          ",
"            .+$                                                                  .$@+.          ",
"            .+$.                                                                 .$+...         ",
"            .+$.                                                                 $#+.           ",
"         ...+#$..                                                                $#+.           ",
"          ..+#$..                                                               .$+.            ",
"        ...+#$..                                                                .$+.            ",
"         .+@##$.                                                                .$+.            ",
"         ..+@#$.                                                                $@+..           ",
"          ..+@$.                                                                $@@+...         ",
"           .+@$.                                                                $@##+.          ",
"           .+@$                                                                .$##+..          ",
"           .+$.                                                                .$##+.           ",
"           .+$.                                                                .$##+.           ",
"          ..+@$                                                                ..$#+.           ",
"        ...+@@$                                                                 .$#+..          ",
"         ...+@@$                                                                $@##+.          ",
"          .+##@$.                                                              .$##+..          ",
"           .+##$.                                                              .$##+.           ",
"            .+#$                                                               .$##+.           ",
"            .+#$                                                               ..$#+.           ",
"            .+$.                                                                .$#+..          ",
"           ..+$.                                                                 $##+.          ",
"           .+@$.                                                                 .$@+.          ",
"          .+@$..                                                                 .$+...         ",
"          .+#$.                                                                  $#+.           ",
"           .+#$                                                                  $#+.           ",
"            .+$                                                                  $+.            ",
"            .+$                                                                 .$+.            ",
"            .+$.                                                                .$+.            ",
"            .+$.                                                                .$#+.           ",
"            .+@$.                                                               .$@+.           ",
"            .+##$                                                              .$@+...          ",
"           ...+#$               $                              .$$      $$     $$+..            ",
"             ..+$$      $$     $$$      $$     $$$      $$     $..$  $$$..$$$.$....             ",
"              ....$..$$$..$$$ $...$..$$$..$$$ $...$  $$$..$$$.$.   $$........$$   .             ",
"              .    $$........$$.   $$........$$.   $$........$$      .   .   .                  ",
"                     .   .   . .     .   .   . .     .   .   .                                  ",
"                                                                                                ",
"                                                                                                ",
"                                                                                                ",
"                                                                                                ",
"                                                                                                ",
"                                                                                                ",
"                                                                                                ",
"                                                                                                ",
"                                                                                                ",
"                                                                                                "};
