/* XPM */
static char * 011011000_xpm[] = {
"32 32 8 1",
" 	c #509B66",
".	c #3B7251",
"+	c #21110D",
"@	c #503625",
"#	c #114517",
"$	c #347B2C",
"%	c #53A03B",
"&	c #755338",
"  ...++@@@@##$$%%%%%%%%%%%%%%%%%",
"  ...++@@&&##$$$$%%%%$$%%%%%%%%%",
"  ...++@@&&##$$$$%%%%$$%%%%%%%%%",
"  ...++&&&&@@##$$%%%%##%%%%%%%%%",
"  ...++&&&&@@##$$%%%%##%%%%%%%%%",
".....++&&&&@@@@##$$$$##$$%%%%%%%",
".....++&&&&@@@@##$$$$##$$%%%%%%%",
".....++&&&&@@&&@@####@@##$$$$$$$",
".....++&&&&@@&&@@####@@##$$$$$$$",
".....++&&@@@@&&&&&&&&&&@@#######",
".....++&&@@@@&&&&&&&&&&@@#######",
".....++@@@@&&&&&&&&&&&&&&&&&&&&&",
".....++@@@@&&&&&&&&&&&&&&&&&&&&&",
".....++@@&&&&&&&&&&&&&&&&&&&&&&&",
".....++@@&&&&&&&&&&&&&&&&&&&&&&&",
"  ...++@@&&&&&&&&&&&&&&&&&&&&&&&",
"  ...++@@&&&&&&&&&&&&&&&&&&&&&&&",
"  ...++@@&&&&&&&&&&&&&&&&&&&&&&&",
"  ...++@@&&&&&&&&&&&&&&&&&&&&&&&",
"  .....++&&&&&&&&&&&&&&&&&&&&&&&",
"  .....++&&&&&&&&&&&&&&&&&&&&&&&",
"     ..++&&&&&&&&&&&&&&@@&&&&&&&",
"     ..++&&&&&&&&&&&&&&@@&&&&&&&",
"     ..++&&&&&&&&&&&&&&@@&&&&&&&",
"     ....++&&&&&&&&&&&&@@&&&&&&&",
"     ....++&&&&&&&&&&&&@@&&&&&&&",
"       ....++++&&&&&&@@++++&&&&&",
"       ....++++&&&&&&@@++++&&&&&",
"         ......++++++++....+++++",
"         ......++++++++....+++++",
"             ...................",
"             ..................."};
