/* XPM */
static char * enter_right_bottom_xpm[] = {
"32 32 7 1",
" 	c #53A03B",
".	c #3B7251",
"+	c #21110D",
"@	c #503625",
"#	c #114517",
"$	c #347B2C",
"%	c #755338",
"  ...++@@@@##$$                 ",
"  ...++@@%%##$$$$    $$         ",
"  ...++@@%%##$$$$    $$         ",
"  ...++%%%%@@##$$    ##         ",
"  ...++%%%%@@##$$    ##         ",
".....++%%%%@@@@##$$$$##$$       ",
".....++%%%%@@@@##$$$$##$$       ",
".....++%%%%@@%%@@####@@##$$$$$$$",
".....++%%%%@@%%@@####@@##$$$$$$$",
".....++%%@@@@%%%%%%%%%%@@#######",
".....++%%@@@@%%%%%%%%%%@@#######",
".....++@@@@%%%%%%%%%%%%%%%%%%%%%",
".....++@@@@%%%%%%%%%%%%%%%%%%%%%",
".....++@@%%%%%%%%%%%%%%%%%%%%%%%",
".....++@@%%%%%%%%%%%%%%%%%%%%%%%",
"  ...++@@%%%%%%%%%%%%%%%%%%%%%%%",
"  ...++@@%%%%%%%%%%%%%%%%%%%%%%%",
"  ...++@@%%%%%%%%%%%%%%%%%%%%%%%",
"  ...++@@%%%%%%%%%%%%%%%%%%%%%%%",
"  .....++%%%%%%%%%%%%%%%%%%%%%%%",
"  .....++%%%%%%%%%%%%%%%%%%%%%%%",
"     ..++%%%%%%%%%%%%%%@@%%%%%%%",
"     ..++%%%%%%%%%%%%%%@@%%%%%%%",
"     ..++%%%%%%%%%%%%%%@@%%%%%%%",
"     ....++%%%%%%%%%%%%@@%%%%%%%",
"     ....++%%%%%%%%%%%%@@%%%%%%%",
"       ....++++%%%%%%@@++++%%%%%",
"       ....++++%%%%%%@@++++%%%%%",
"         ......++++++++....+++++",
"         ......++++++++....+++++",
"             ...................",
"             ..................."};
