/* XPM */
static char * hearts_dead_xpm[] = {
"32 32 5 1",
" 	c #509B66",
".	c #2C2C2C",
"+	c #535353",
"@	c #3E3E3E",
"#	c #3B7251",
"                                ",
"                                ",
"                                ",
"                                ",
"                                ",
"                                ",
"                                ",
"                                ",
"          .....  .....          ",
"          .....  .....          ",
"          .....  .....          ",
"        ..+++++..@@@@@..        ",
"        ..+++++..@@@@@..        ",
"        ..+++++++@@@@@..        ",
"        ..+++++++@@@@@..        ",
"        ..+++++++@@@@@..        ",
"          ..+++++@@@..          ",
"          ..+++++@@@..          ",
"        ####...@@...####        ",
"        ####...@@...####        ",
"        #######..#######        ",
"        #######..#######        ",
"        #######..#######        ",
"          ############          ",
"          ############          ",
"                                ",
"                                ",
"                                ",
"                                ",
"                                ",
"                                ",
"                                "};
