/* XPM */
static char * road_player_five_xpm[] = {
"32 32 27 1",
" 	c #509B66",
".	c #414B66",
"+	c #677598",
"@	c #296640",
"#	c #4D9066",
"$	c #446266",
"%	c #47516D",
"&	c #337349",
"*	c #2F6149",
"=	c #395759",
"-	c #4A9260",
";	c #3D5160",
">	c #404D65",
",	c #3A555B",
"'	c #000000",
")	c #573A23",
"!	c #402717",
"~	c #AC7B5D",
"{	c #21110D",
"]	c #C1AC8F",
"^	c #787E97",
"/	c #A4A8B5",
"(	c #2C65B5",
"_	c #1D438A",
":	c #313951",
"<	c #214C39",
"[	c #3B7251",
"                                ",
"          ...                   ",
"      ....+++.@@     ...        ",
"    ..+++.++++..    .+++.@      ",
"   .++..+++++++.@  #.++++.@     ",
"  .+...+++.++++..  $%+++++.     ",
" .+++...++.......  &*=++++.     ",
"@.++++..++...+++.. -@@;@.>,     ",
"@.+++++++..''''+''   &-@@@@     ",
"@@.+++++...'))!')'''            ",
" @@.....@@@''))!)!))'           ",
"  @@@@@@@ '!)))))))))'          ",
" @  @@ @ '!)))))))))))'         ",
"     @   '!))!)))!!)))'         ",
"         '!!!!)))!~~!)!'        ",
"         '!)!!))!~~~~!!'        ",
"         '!))~!)~{]]{'!' .....  ",
"         '!!)~~!]{]]{'' .+++++. ",
"          '!!~~]]]]]]'@.+++..++.",
"       ... '!!~~]]]]~'.++...+++.",
"     ..+++. '!!~~~~~'..+++...++.",
"    .++..++'!!))^^/!''.++++..++.",
"   .+...++']]!))^//!~~'+++++++. ",
"  .+++...+']]!))(((!~~'.+++++.@ ",
" @.++++..++''_((_(('''.......@@ ",
" @.+++++++:<'!)''!)':::@@@@@@@  ",
" @@.+++++.<<[[[[[<<:::<@ @@     ",
"  @@.....@@<[[[[[[<<<<@   @     ",
"   @@@@@@@  @        @          ",
"  @  @@ @                       ",
"      @                         ",
"                                "};
