/* XPM */
static char * 000110010_xpm[] = {
"32 32 12 1",
" 	c #000000",
".	c #509B66",
"+	c #414B66",
"@	c #677598",
"#	c #8F9AB0",
"$	c #242A3D",
"%	c #515D79",
"&	c #535E7B",
"*	c #313748",
"=	c #191F2A",
"-	c #282E3E",
";	c #010101",
"    .     ..   .    .   ..    ..",
"+@@@ +@@@+  +@@ +@@@ +++  +@@@ .",
"@@@@+@@@@@+ @@@+@@@@+@@@+ @@@@@ ",
"@@@@@@@@@@@+@@@+@@@@@@@@@+@@@@@ ",
"@@@#@@@@@@@$@@+$@@@#@@@@@$@@@@+ ",
"+##+@####@@++@@@+##+@##@@+@@@@@ ",
"#++$#@@@@#@+@@@##++$#@@#@+@@### ",
"@$$$@@@@@$$@@@@@@$$$@@@ $@@@@@+ ",
"@@$@+++@@$+++@@@@@$@+++ @@@@@@@ ",
"@@$++++++$+++++@@@$++++ @@@@@@# ",
"++$++++++$+++@++++$++++ @@@@@@# ",
"+$$$+++++$$++++++$$$+++ @@@@@## ",
"$$$+@@@@$$$$$$$$$$$+@@@ +@@###+ ",
"@+$@++@@@$@@@@@@@+$@++@ $$++++@ ",
"@@+++@+++@@@@@@@@@+++@+ $@@@++@ ",
"@@@++++++@++++++@@@++++ @@@@@@+ ",
"++@$++++++++++++++@$+++ @@@@@@@ ",
"++$$$$$$$$++++++++$$$$$ @@@@@@@ ",
"@@@@+$$@@@@@@$$+@@@@+$$ @@@@@@# ",
"++@@@$@@+++@@@$@++@@@$@ @@@@@@# ",
"++++@$++@++++@$+++++@$+ @@@@@## ",
"++++$$++++++++$$++++$$+ @@####+ ",
"$$$$$$$++++++$$$$$$$$$$ $$+@++$ ",
"@$$$@@@@@$$@@@@@@$$$@@@ +@@@@+@ ",
"@@$@+++@@$+++@@@@@$@+++ @@@@@@+ ",
"@@$+++++++++$+++++++++@ @@@@@@@ ",
"++$++++++++$$$++++++++$ @@@@@@@ ",
"+$$$+++++$$@@@@@@$$+@@@ @@@@@@@ ",
"$$$+@@@@$$@@+++@@@$@++@ +@@@@@@ ",
"@+$@++@@@$++@++++@$++++ %+@@@@@ ",
"&*=-+++++$++++++++$$+++ @@@@@@# ",
"        ;               @@+@##+ "};
