/* XPM */
static char * 010010010_mid_xpm[] = {
"32 32 15 1",
" 	c #755338",
".	c #60432D",
"+	c #000000",
"@	c #677598",
"#	c #414B62",
"$	c #414B66",
"%	c #515D79",
"&	c #503625",
"*	c #4A546E",
"=	c #5D6A8A",
"-	c #576382",
";	c #242A3D",
">	c #8F9AB0",
",	c #54607D",
"'	c #4F5A76",
"           .+@#$@@@%+       &   ",
"            +**@@@@@+       &   ",
"&&&& &&    &+=-@@@@@+&&    &&&&&",
"            +%;@@@@$+           ",
"            +@$@@@@@+           ",
"            +@$@@>>>+           ",
"     &      +;@@@@@$+&          ",
"&&&&&&&& && +@@@@@@@+&&& &&    &",
" &          +@@@@@@>+           ",
"            +@@@@@@>+           ",
"            +@@@@@>>+           ",
"            +$@@>>>$+           ",
"&&&   &&&&&&+;;$$$$@+ &&&&&&&&&&",
"            +;@@@$$@+       &   ",
"            +@@@@@@$+           ",
"            +@@@@@@@+           ",
"            +@@@@@@@+       &   ",
"            +@@@@@@>+       &   ",
"&&&& &&    &+@@@@@@>+&&    &&&&&",
"            +@@@@@>>+           ",
"            +@@>>>>$+           ",
"            +;;$@$$;+           ",
"     &      +$@@@@$@+&          ",
"&&&&&&&& && +@@@@@@$+&&& &&    &",
" &          +@@@@@@@+           ",
"            +@@@@@@@+           ",
"            +@@@@@@@+           ",
"            +$@@@@@@+           ",
"&&&   &&&&&&+,$@@@@@+ &&&&&&&&&&",
"            +'@@@@@>+       &   ",
"            +@@$@>>$+           ",
"            +@@$$$;;+           "};
