/* XPM */
static char * 010011000_xpm[] = {
"32 32 6 1",
" 	c #000000",
".	c #414B66",
"+	c #677598",
"@	c #242A3D",
"#	c #509B66",
"$	c #8F9AB0",
" .+++++@   #        #  #   #    ",
" +$++++$++  .++ .+++ .+ ... +++.",
" ++$$$$++++ +++.++++.++.+++.++++",
" +++++++.++.+++.++++++++++++++++",
" ++++++++++@++.@+++$++++++++$+++",
" ++$$$$++..+++++.$$.+$$++$$+.$$.",
" +$++++$+.+$$$$$$..@$+++$++$@..$",
" @++++++.@@++++++@@@+++.++++@@@+",
" +...++++@...+++++@+...+++..+@++",
" .....+++@.....+++@....+.....@++",
" ......+.@...+....@.....+....@..",
"  ......@@@......@@@...@....@@@.",
"  ++++@@@@@@@@@@@@@.+++@@+++.@@@",
" ++..++@@@+++++++.@+..+@++..+@.+",
" +.....+@+++++++++...+.+..+...++",
" .......@+......+++..........+++",
" .......@.........+@........@+..",
"  .....@@@........@@@@@@@@@@@@..",
" +++.@@++++++@@.++++.@@++@@.++++",
" .+++@++...+++@+..+++@+.++@+++..",
" ...+@..+....+@.....+@.+..@+....",
" ...@@........@@....@@....@@....",
"  @@@@@......@@@@@@@@@@..@@@@@@@",
" @++++++.@@++++++@@@+++.++++@@@+",
" +...++++@...+++++@+...+++..+@++",
" .......@.........+@...+.....@++",
"  .....@@@........@@@@@.+....@..",
" +++.@@++++++@@.++++.@@@....@@@.",
" .+++@++...+++@+..+++@+@@+++.@@@",
" ...+@..+....+@.....+@.@++..+@.+",
" ...@@........@@....@@.+..+...++",
"                                "};
