/* XPM */
static char * 010110000_xpm[] = {
"32 32 6 1",
" 	c #000000",
".	c #509B66",
"+	c #242A3D",
"@	c #677598",
"#	c #414B66",
"$	c #8F9AB0",
"    .   .  .        .   +@@@@@# ",
"#@@@ ### @# @@@# @@#  @@$@@@@$@ ",
"@@@@#@@@#@@#@@@@#@@@ @@@@$$$$@@ ",
"@@@@@@@@@@@@@@@@#@@@#@@#@@@@@@@ ",
"@@@$@@@@@@@@$@@@+#@@+@@@@@@@@@@ ",
"#$$#@$$@@$$@#$$#@@@@@##@@$$$$@@ ",
"$##+$@@$@@@$+##$$$$$$@#@$@@@@$@ ",
"@+++@@@@#@@@+++@@@@@@++#@@@@@@+ ",
"@@+@##@@@###@+@@@@@###+@@@@###@ ",
"@@+#####@####+@@@#####+@@@##### ",
"##+####@#####+####@###+#@###### ",
"#+++####+###+++######+++######  ",
"+++#@@@++@@@#+++++++++++++@@@@  ",
"@#+@##@@+@##@+#@@@@@@@+++@@##@@ ",
"@@###@##@#@###@@@@@@@@@+@#####@ ",
"@@@##########@@@######@+####### ",
"##@+########+@#########+####### ",
"##++++++++++++########+++#####  ",
"@@@@#++@@++#@@@@#++@@@@@@++#@@@ ",
"##@@@+@@#@+@@@##@+@@@###@@+@@@# ",
"####@+##@#+@#####+@####@##+@### ",
"####++####++####++########++### ",
"+++++++##++++++++++######+++++  ",
"@+++@@@@#@@@+++@@@@@@++#@@@@@@+ ",
"@@+@##@@@###@+@@@@@###+@@@@###@ ",
"@@+#####@###+@#########+####### ",
"##+####@#+++++########+++#####  ",
"#+++####+++#@@@@#++@@@@@@++#@@@ ",
"+++#@@@++@+@@@##@+@@@###@@+@@@# ",
"@#+@##@@+#+@#####+@####@##+@### ",
"@@###@##@#++####++########++### ",
"                                "};
