/* XPM */
static char * chest_open_slimbiome_xpm[] = {
"32 32 9 1",
" 	c #53A03B",
".	c #21110D",
"+	c #B6BEC8",
"@	c #755338",
"#	c #503625",
"$	c #342319",
"%	c #677598",
"&	c #242A3D",
"*	c #3D7636",
"                                ",
"                                ",
"                                ",
"                                ",
"                                ",
"                                ",
"                                ",
"                                ",
"                                ",
"                                ",
"           ..........           ",
"          .++@@@@@@++.          ",
"         .@..........@.         ",
"         .@..........@.         ",
"         .@..........@.         ",
"         .#++@@@@@@++#.         ",
"         .$%%#%&&%#%%$.         ",
"         .$%%#%&&%#%%$.         ",
"        *.$%%#%&&%#%%$.*        ",
"        *.$%%#%%%%#%%$.*        ",
"        *.$%%######%%$.*        ",
"        **.%%######%%.**        ",
"         **************         ",
"           **********           ",
"                                ",
"                                ",
"                                ",
"                                ",
"                                ",
"                                ",
"                                ",
"                                "};
