/* XPM */
static char * 000011011_xpm[] = {
"32 32 7 1",
" 	c #509B66",
".	c #21110D",
"+	c #347B2C",
"@	c #53A03B",
"#	c #114517",
"$	c #3B7251",
"%	c #503625",
"                                ",
"                                ",
"                             ...",
"                             ...",
"                ......    ...+++",
"                ......    ...+++",
"              ..++++++....+++@@+",
"              ..++++++....+++@@+",
"            ..++++@@@@@@++@@@@@@",
"            ..++++@@@@@@++@@@@@@",
"            ..++@@@@@@@@@@@@@@@@",
"            ..++@@@@@@@@@@@@@@@@",
"          ..++@@@@@@@@@@@@@@@@@@",
"          ..++@@@@@@@@@@@@@@@@@@",
"        ..##++++@@@@@@@@@@@@@@@@",
"        ..##++++@@@@@@@@@@@@@@@@",
"        ..##++++@@@@@@@@@@@@@@@@",
"        ..++@@@@@@@@@@@@@@@@@@@@",
"        ..++@@@@@@@@@@@@@@@@@@@@",
"      ..##@@@@@@@@@@@@@@@@@@@@@@",
"      ..##@@@@@@@@@@@@@@@@@@@@@@",
"    $$..++@@@@@@@@@@@@@@@@@@@@@@",
"    $$..++@@@@@@@@@@@@@@@@@@@@@@",
"    ..##++@@@@@@@@@@@@@@@@@@@@@@",
"    ..##++@@@@@@@@@@@@@@@@@@@@@@",
" $$$..%%##++@@@@@@@@@@@@@@@@@@@@",
" $$$..%%##++@@@@@@@@@@@@@@@@@@@@",
" $$$..%%%%##++@@@@@@@@@@@@@@@@@@",
" $$$..%%%%##++@@@@@@@@@@@@@@@@@@",
" $$$..%%%%##++@@@@@@@@@@@@@@@@@@",
" $$$..%%%%##++@@@@@@@@@@@@@@@@@@",
" $$$$$..%%##++++@@@@@@@@@@@@@@@@"};
