/* XPM */
static char * 110111111_xpm[] = {
"32 32 5 1",
" 	c #53A03B",
".	c #114517",
"+	c #21110D",
"@	c #509B66",
"#	c #347B2C",
"                       .++@@@@@@",
"                       .++++@@@@",
"                       ..+++++++",
"                       #..++++++",
"                        ########",
"                         #######",
"                                ",
"                                ",
"                                ",
"                                ",
"                                ",
"                                ",
"                                ",
"                                ",
"                                ",
"                                ",
"                                ",
"                                ",
"                                ",
"                                ",
"                                ",
"                                ",
"                                ",
"                                ",
"                                ",
"                                ",
"                                ",
"                                ",
"                                ",
"                                ",
"                                ",
"                                "};
