/* XPM */
static char * 111111110_xpm[] = {
"32 32 7 1",
" 	c #53A03B",
".	c #347B2C",
"+	c #114517",
"@	c #755338",
"#	c #503625",
"$	c #21110D",
"%	c #3B7251",
"                                ",
"                                ",
"                                ",
"                                ",
"                                ",
"                                ",
"                                ",
"                               .",
"                              .+",
"                            ..++",
"                          ..++++",
"                         ..+++@@",
"                        ..++@@@@",
"                        .+++@@@@",
"                       .+++@@@@@",
"                      ..++#@@@@@",
"                      ..++#@@@@@",
"                      ..+##@@@@@",
"                     ..++##@#@@@",
"                     ..++##@#@@@",
"                     ..++#####@@",
"                     ..++#####@@",
"                     ..++@####@@",
"                     ..++@#####@",
"                     ..++#######",
"                     ..++#######",
"                     ..++######@",
"                     ..++#######",
"                     ..+##@####$",
"                     ..++#@@##$$",
"                     ..++@@@##$$",
"                     ..++@@@@$$%"};
