/* XPM */
static char * enter_left_xpm[] = {
"32 32 22 1",
" 	c #509B66",
".	c #509B63",
"+	c #53A03B",
"@	c #53A03D",
"#	c #53A03F",
"$	c #529E4A",
"%	c #509D5A",
"&	c #509B65",
"*	c #539F3F",
"=	c #21110D",
"-	c #53A03E",
";	c #519D54",
">	c #519C5D",
",	c #53A03C",
"'	c #529E49",
")	c #509C5F",
"!	c #509C61",
"~	c #347B2C",
"{	c #114517",
"]	c #3D7636",
"^	c #2E5734",
"/	c #503625",
"                             .++",
"@@@@@#$%&                   *+++",
"===+++++++@-;            >@+++++",
"===++++++++++++,@@') !$,++++++++",
"~~~===++++======++++++++++++++++",
"~~~===++++======++++++++++++++++",
"~++~~~====~~~~~~==++++++++++++++",
"~++~~~====~~~~~~==++++++++++++++",
"++++++~~++++++~~~~==++++++++++++",
"++++++~~++++++~~~~==++++++++++++",
"++++++++++++++++~~==++++++++++++",
"++++++++++++++++~~==++++++++++++",
"++++++++++++++++++~~==++++++++++",
"++++++++++++++++++~~==++++++++++",
"++++++++++++++++~~~~~~==++++++++",
"++++++++++++++++~~~~~~==++++++++",
"++++++++++++++++~~~~~~==++++++++",
"++++++++++++++++++++~~==++++++++",
"++++++++++++++++++++++~~==++++++",
"++++++++++++++++++++++~~==++++++",
"++++++++++++++++++++~~~~{{==++++",
"++++++++++++++++++++~~~~{{==++++",
"++++++++++++++++++++~~~~{{==++++",
"++++++++++++++++++++++++~~==++++",
"++++++++++++++++++++++++~~==++++",
"++++++++++++++++++++++++++{{==]+",
"++++++++++++++++++++++++++{{==]+",
"++++++++++++++++++++++++++~~==^]",
"++++++++++++++++++++++++++~~==^]",
"++++++++++++++++++++++++++~~{{==",
"+++++++++++++++++++++++++++++{==",
"+++++++++++++++++++++++++++++/=="};
