/* XPM */
static char * 0001_tree_xpm[] = {
"32 32 10 1",
" 	c #347B2C",
".	c #53A03B",
"+	c #114517",
"@	c #082B0C",
"#	c #509B66",
"$	c #342319",
"%	c #21110D",
"&	c #3B7251",
"*	c #503625",
"=	c #755338",
"  . ..+... ..+..   +++@#########",
"....++ .. .   ...   ++@#########",
".....+   ...   ..    +@#########",
".....   ....      +  @##########",
".....     ..+  +  +++@##########",
"......  +  +    ++++@###########",
"... .. +++++    +++@############",
"..      +@++  +++@@#############",
"     +  +@+++++++@##############",
"  +  ++++@@@+++++@##############",
" +++++++@@@@@@++@###############",
"++@++++@@@@@@@@@################",
"+@@@@@@$%&&@@&&&&###############",
"@$$$$$$$%&&&&&&&&&##############",
"*$$$$*$$*%&&&&&&&&&#############",
"**$$**$$=%&&&&&&&&&#############",
"=*$*=**$*=%&&&&&&&&&############",
"=***==*$$*$%&&&&&&&&############",
"**=*==*$$==$%&&&&&&&############",
"*=====*$$*==%&&&&&&&############",
"*=$====*%$*=%&&&&&&&############",
"=$$*=*==%%**%&&&&&&&############",
"=$%$*====%&&&&&&&&&&############",
"*$%$*=====%&&&&&&&&#############",
"$%%%**===*%&&&&&&&&#############",
"$&&&%*****%&&&&&&&##############",
"&&&&&&&&&&&&&&&&&&##############",
"&&&&&&&&&&&&&&&&&###############",
"&&&&&&&&&&&&&&&&################",
"&&&&&&&&&&&&&&&#################",
"&&&&&&&&&&&&&###################",
"&&&&###&&&&#####################"};
