/* XPM */
static char * 0100_tree_slimbiome_xpm[] = {
"32 32 6 1",
" 	c #082B0C",
".	c #53A03B",
"+	c #347B2C",
"@	c #114517",
"#	c #9E2E46",
"$	c #71193C",
"  ..............................",
".+  ..    ......................",
"...+  +... .....................",
".....+.....    .................",
".....+..... ..+ ................",
"...............+ ...............",
"...............+ ...............",
"...............@@ ..............",
"..............@.. ..............",
".................+ .............",
".......+.........+ .............",
"+@+.+@+...........+ ............",
".+@@@++...........+ ............",
"...+@+............. ............",
"....+..............+ ...........",
".................... ...........",
".................... ...........",
"...................+ ...........",
"................... ............",
"..................+ ............",
".................+#$ ...........",
"................+##$  ..........",
"...............++$$.+ ..........",
"..............++@...+ ..........",
"..............@@@@+++ ..........",
"..+@...........@..++ ...........",
".+@#$..........+...+ ...........",
"+@##$...........+..++ ..........",
"+.$$............+++++ ..........",
"................+@@+@ ..........",
"............+..@@#$+@@ .........",
"+............+@@##$+@@ ........."};
