/* XPM */
static char * book_xpm[] = {
"32 32 12 1",
" 	c #755338",
".	c #21110D",
"+	c #9D7658",
"@	c #503625",
"#	c #342319",
"$	c #71193C",
"%	c #33418A",
"&	c #9E2E46",
"*	c #425B9E",
"=	c #BE5B1E",
"-	c #D18075",
";	c #B6BEC8",
" ..............  .............. ",
".++++++++++++++..++++++++++++++.",
".++++++++++++++..++++++++++++++.",
".++++++++++++++..++++++++++++++.",
".              ..              .",
".@@##########@@..@@##########@@.",
".  #$$%%#####  ..  #$$%%#####  .",
".  #&&**%####  ..  #&&**%####  .",
".  @&&@**@@@@  ..  @&&@**@@@@  .",
".  @           ..  @           .",
".  ######..##  ..  ######..##  .",
".  #$$=#.@@.#  ..  #$$=#.@@.#  .",
".  #&&-#.;;.#  ..  #&&-#.;;.#  .",
".  @&&-@.;;.@  ..  @&&-@.;;.@  .",
".  @           ..  @           .",
".  @@@@@@@@@@  ..  @@@@@@@@@@  .",
".  @   @@   @  ..  @   @@   @  .",
".  @   @@   @  ..  @   @@   @  .",
".  @  -@@-  @  ..  @  -@@-  @  .",
".  @   @@   @  ..  @   @@   @  .",
".  @   @@   @  ..  @   @@   @  .",
".@@..........@@..@@..........@@.",
"     @               @          ",
"@@@@@@@@ @@    @@@@@@@@@ @@    @",
" @               @              ",
"                                ",
"                                ",
"                                ",
"@@@   @@@@@@@@@@@@@   @@@@@@@@@@",
"            @               @   ",
"                                ",
"                                "};
