/* XPM */
static char * chair_xpm[] = {
"32 32 6 1",
" 	c #755338",
".	c #503625",
"+	c #21110D",
"@	c #9D7658",
"#	c #563E35",
"$	c #3B2B2B",
"            .               .   ",
"            .               .   ",
".... ..    ......... ..    .....",
"                                ",
"                                ",
"                                ",
"     .               .          ",
"........ ..    ......... ..    .",
" .               .              ",
"         ++++++++++++++         ",
"        +@@@@@@@@@@@@@@+        ",
"        +@@@@@@@@@@@@@@+        ",
"...   ..+@@@@@@@@@@@@@@+........",
"        +@@@@@@@@@@@@@@+    .   ",
"        +@@@@@@@@@@@@@@+        ",
"        +@@@@@@@@@@@@@@+        ",
"        +@@@@@@@@@@@@@@+    .   ",
"       #+@@@@@@@@@@@@@@+    .   ",
".... ..#+@@@@@@@@@@@@@@+   .....",
"        +              +        ",
"        +              +        ",
"        #+...++++++...+#        ",
"     .  #+...+####+...+#        ",
"........#+...+#$$$+...+$ ..    .",
" .       ########$#####         ",
"                                ",
"                                ",
"                                ",
"...   .............   ..........",
"            .               .   ",
"                                ",
"                                "};
