/* XPM */
static char * chest_xpm[] = {
"32 32 10 1",
" 	c #755338",
".	c #503625",
"+	c #21110D",
"@	c #BC6924",
"#	c #E9CE7C",
"$	c #342319",
"%	c #9E3715",
"&	c #242A3D",
"*	c #563E35",
"=	c #3B2B2B",
"            .               .   ",
"  ++++++++++++              .   ",
".+.@@......@@.+..... ..    .....",
" + ##      ## +  ++++++++++++++ ",
" + ##      ## + +..@@......@@..+",
" + ##      ## + +  ##      ##  +",
" + ##      ## + +  ##      ##  +",
".+.@@......@@.+.+. ##      ## .+",
" +@@@@####@@@@+ +..@@......@@..+",
" +$%%$%&&%$%%$+ +%@@@@####@@@@%+",
"*+$@@.@&&@.@@$+**+$%%$%&&%$%%$+*",
"*+$@@.@@@@.@@$+**+$@@.@@@@.@@$+*",
"=+$@@......@@$+==+$@@......@@$+=",
"**+@@......@@+****+@@......@@+**",
" **************  ************** ",
"   **********      **********   ",
"            .               .   ",
"            .               .   ",
".... ..    ......... ..    .....",
"                                ",
"                                ",
"                                ",
"     .               .          ",
"........ ..    ......... ..    .",
" .               .              ",
"                                ",
"                                ",
"                                ",
"...   .............   ..........",
"            .               .   ",
"                                ",
"                                "};
