/* XPM */
static char * grave_bottom_xpm[] = {
"32 32 4 1",
" 	c #53A03B",
".	c #3D7636",
"+	c #21110D",
"@	c #8F9AB0",
"                                ",
"                                ",
"                                ",
"                                ",
"                                ",
"                                ",
"                                ",
"                                ",
"            ........            ",
"           ..........           ",
"          ............          ",
"          ............          ",
"          ............          ",
"          ............          ",
"          ............          ",
"          ............          ",
"          ............          ",
"         ..............         ",
"         ..............         ",
"         ..............         ",
"        ..++++++++++++..        ",
"        .++@@@@@@@@@@++.        ",
"        .+@@@@@@@@@@@@+.        ",
"         +@@@@@@@@@@@@+         ",
"         +@@@@@@@@@@@@+         ",
"         ++++++++++++++         ",
"                                ",
"                                ",
"                                ",
"                                ",
"                                ",
"                                "};
