/* XPM */
static char * skull_xpm[] = {
"32 32 5 1",
" 	c #53A03B",
".	c #21110D",
"+	c #C8B3A2",
"@	c #9D7658",
"#	c #3D7636",
"                                ",
"                                ",
"                                ",
"                                ",
"                                ",
"                                ",
"                                ",
"                                ",
"                                ",
"                                ",
"              .....             ",
"            ..+++++.            ",
"           .++++++++.           ",
"          .++++++++++.          ",
"          .@+++@@@+++.          ",
"           .@+@..++++.          ",
"           .@+@..++++.          ",
"          .@+++@++++@.          ",
"         #.++++++++@.##         ",
"         ##.+@+@+@@.###         ",
"          ############          ",
"                                ",
"                                ",
"                                ",
"                                ",
"                                ",
"                                ",
"                                ",
"                                ",
"                                ",
"                                ",
"                                "};
