/* XPM */
static char * small_tree_xpm[] = {
"32 32 8 1",
" 	c #755338",
".	c #503625",
"+	c #563E35",
"@	c #082B0C",
"#	c #347B2C",
"$	c #53A03B",
"%	c #21110D",
"&	c #342319",
"            .               .  +",
"            . @@@@          .   ",
".... ..   @@@@#$$#@@@..    .....",
"         @$$#@$$$$@$$@          ",
"         @$$$#$$$$#$$$@         ",
"        @$$$$$$$$$$$$$@         ",
"     .  @$$$$$$$$$$$$#@         ",
"........@$$$$$$$$$$$$$$@ ..    .",
" .      @#$$$$$$$$$$$$$@        ",
"         @#$$$$$$$$$$$$@        ",
"         @$$$$$$$$$$$$#@        ",
"        @#$$$$$$$$$$$#@         ",
"...   ..@$$$$$$$$$$$$$#@........",
"        @$$$$$$$$$$$$$$@    .   ",
"        @$$#$$$$$$#$$$$@        ",
"        @##$$$$#$$#$#$$@        ",
"        @#$$$$$$##$$$#@     .   ",
"         @$$$$#$$$$$$#@     .   ",
".... ..  @#$$##$$#$$$#@    .....",
"          @##########@          ",
"           @@###.###@           ",
"           %%@%..@@@%           ",
"     .    %  .%..%.  %          ",
"........ .% .%%..%%. %.. ..    .",
" .        % %%%%%%%% %          ",
"          %  %%%%%%  %          ",
"          %.        .%          ",
"          %&........&%          ",
"...   .....%&&&&&&&&% ..........",
"           %........%       .   ",
"           +&......&+           ",
"            +&&&&&&+            "};
