/* XPM */
static char * tree_stomp_two_xpm[] = {
"64 64 7 1",
" 	c #509B66",
".	c #21110D",
"+	c #9D7658",
"@	c #755338",
"#	c #503625",
"$	c #342319",
"%	c #3B7251",
"                                                                ",
"                                                                ",
"                                                                ",
"                                                                ",
"                                                                ",
"                                                                ",
"                                                                ",
"                                                                ",
"                                                                ",
"                                                                ",
"                                                                ",
"                                                                ",
"                                                                ",
"                                                                ",
"                                                                ",
"                                                                ",
"                                                                ",
"                                                                ",
"                                                                ",
"                                                                ",
"                                                                ",
"                                                                ",
"                                                                ",
"                             ......                             ",
"                            .+@@@@+.                            ",
"                           .+@@+++@+.                           ",
"                           .#++@+++@#.                          ",
"                          .###@@@#@@#.                          ",
"                         .##@###@@#@@.                          ",
"                        .#$@#.@@@@..#@.                         ",
"                        .$@@.@@@@#.@.#@.                        ",
"                       %.@@#.#@#@@#@@#@.                        ",
"                       .#@@@..#@@@.#@@#$.                       ",
"                      %.@@@#.$#@@@#.@@@#.%                      ",
"                      %.@@@#.$@@@@#.#@@#.%                      ",
"                       %$##$.$@@@##.$##$%%                      ",
"                         %%%%$#@#@$.%%%%%                       ",
"                             %$#$$.%%%                          ",
"                              %$$$%%                            ",
"                                %%%                             ",
"                                                                ",
"                                                                ",
"                                                                ",
"                                                                ",
"                                                                ",
"                                                                ",
"                                                                ",
"                                                                ",
"                                                                ",
"                                                                ",
"                                                                ",
"                                                                ",
"                                                                ",
"                                                                ",
"                                                                ",
"                                                                ",
"                                                                ",
"                                                                ",
"                                                                ",
"                                                                ",
"                                                                ",
"                                                                ",
"                                                                ",
"                                                                "};
