/* XPM */
static char * 0100_tree_xpm[] = {
"32 32 5 1",
" 	c #082B0C",
".	c #509B66",
"+	c #53A03B",
"@	c #347B2C",
"#	c #114517",
"  ..............................",
"+@  ..    ......................",
"+++@  @+++ .....................",
"+++++@+++++    .................",
"+++++@+++++ ++@ ................",
"+++++++++++++++@ ...............",
"+++++++++++++++@ ...............",
"+++++++++++++++## ..............",
"++++++++++++++#++ ..............",
"+++++++++++++++++@ .............",
"+++++++@+++++++++@ .............",
"@#@+@#@+++++++++++@ ............",
"+@###@@+++++++++++@ ............",
"+++@#@+++++++++++++ ............",
"++++@++++++++++++++@ ...........",
"++++++++++++++++++++ ...........",
"++++++++++++++++++++ ...........",
"+++++++++++++++++++@ ...........",
"+++++++++++++++++++ ............",
"++++++++++++++++++@ ............",
"+++++++++++++++++++@ ...........",
"+++++++++++++++++++@  ..........",
"+++++++++++++++@++++@ ..........",
"++++++++++++++@@#+++@ ..........",
"++++++++++++++####@@@ ..........",
"++@@+++++++++++#++@@ ...........",
"+@@@+++++++++++@+++@ ...........",
"@@@+++++++++++++@++@@ ..........",
"@+++++++++++++++@@@@@ ..........",
"++++++++++++++++@@@@# ..........",
"++++++++++++@++#@@@@## .........",
"@++++++++++++##@@@@@## ........."};
