/* XPM */
static char * hole_xpm[] = {
"32 32 5 1",
" 	c #53A03B",
".	c #3D7636",
"+	c #342319",
"@	c #503625",
"#	c #21110D",
"                                ",
"                                ",
"                                ",
"                                ",
"                                ",
"                                ",
"                                ",
"                                ",
"                   .            ",
"             .    ..            ",
"            ........            ",
"         . ..++++++.            ",
"          ..+@+@@+@+.  .        ",
"          .+@+@@@@+++..         ",
"          .@+++++++++@.         ",
"          .@########++.         ",
"         ..+#########+.         ",
"          .###########          ",
"          .##########           ",
"           .########.           ",
"             .####.             ",
"                                ",
"                                ",
"                                ",
"                                ",
"                                ",
"                                ",
"                                ",
"                                ",
"                                ",
"                                ",
"                                "};
