/* XPM */
static char * tree_stomp_slimbiome_xpm[] = {
"32 32 7 1",
" 	c #53A03B",
".	c #21110D",
"+	c #9D7658",
"@	c #755338",
"#	c #503625",
"$	c #342319",
"%	c #3D7636",
"                                ",
"                                ",
"                                ",
"                                ",
"                                ",
"                                ",
"                                ",
"                                ",
"             ......             ",
"            .+@@@@+.            ",
"           .+@@+++@+.           ",
"           .#++@+++@#.          ",
"          .###@@@#@@#.          ",
"         .##@###@@#@@.          ",
"        .#$@#.@@@@..#@.         ",
"        .$@@.@@@@#.@.#@.        ",
"       %.@@#.#@#@@#@@#@.        ",
"       .#@@@..#@@@.#@@#$.       ",
"      %.@@@#.$#@@@#.@@@#.%      ",
"      %.@@@#.$@@@@#.#@@#.%      ",
"       %$##$.$@@@##.$##$%%      ",
"         %%%%$#@#@$.%%%%%       ",
"             %$#$$.%%%          ",
"              %$$$%%            ",
"                %%%             ",
"                                ",
"                                ",
"                                ",
"                                ",
"                                ",
"                                ",
"                                "};
