/* XPM */
static char * dead_skeleton_xpm[] = {
"32 32 11 1",
" 	c #53A03B",
".	c #000000",
"+	c #947B6B",
"@	c #C6BBB9",
"#	c #503625",
"$	c #342319",
"%	c #36271C",
"&	c #6E5649",
"*	c #677598",
"=	c #3D7636",
"-	c #8F9AB0",
"                                ",
"                                ",
"                                ",
"                                ",
"                                ",
"                                ",
"                                ",
"                                ",
"                                ",
"                                ",
"                                ",
"       ......                   ",
"      .+@@@@@.          ..      ",
"     .+@@@@@@..        .##.     ",
"     .@@@@@@.+@.. ..  ..#$..    ",
"     .@++@+.%%%@@.@. .##$$##.   ",
"     .@..@....@&&%&. .#$$$$$.   ",
"     .@..@.@@@.@@+@. ...**...   ",
"     .@@@@.@@@.@++++.= .--.@@.  ",
"    ==.@&@.+++.@@.+++.=.--.++.  ",
"    =========================   ",
"     =================          ",
"                                ",
"                                ",
"                                ",
"                                ",
"                                ",
"                                ",
"                                ",
"                                ",
"                                ",
"                                "};
