/* XPM */
static char * squletes_xpm[] = {
"32 32 12 1",
" 	c #53A03B",
".	c #000000",
"+	c #C6BBB9",
"@	c #947B6B",
"#	c #B6BEC8",
"$	c #8F9AB0",
"%	c #677598",
"&	c #6E5649",
"*	c #503625",
"=	c #36271C",
"-	c #342319",
";	c #3D7636",
"                                ",
"                                ",
"                                ",
"                                ",
"                                ",
"                                ",
"                                ",
"             ......             ",
"            .++++++.            ",
"           .++++++++.           ",
"          .+++++++++.           ",
"          .+++@@@+@@.  ...      ",
"          .++++..+..  .##.      ",
"          .++++..+....#$#.      ",
"          .@++++++++.#$$%.      ",
"          ..@&&+&+&+#$$%.       ",
"         .++@@&&&&&*$$%.        ",
"         .+@=@+++=+-**.         ",
"         .@++==&&=&&-*.         ",
"          .++@+++@+&..          ",
"           .@++@@@@.            ",
"          ;.+++.@@@.;           ",
"         ;;.++..@@.;;;          ",
"         ;;;;;;;;;;;;;          ",
"          ;;;;;;;;;;;           ",
"                                ",
"                                ",
"                                ",
"                                ",
"                                ",
"                                ",
"                                "};
