/* XPM */
static char * spirit_xpm[] = {
"32 32 5 1",
" 	c #222222",
".	c #483B3A",
"+	c #775C55",
"@	c #050403",
"#	c #BF0D0D",
"      ..        ......  ..      ",
"      ..        ......  ..      ",
"  ............................++",
"  ............................++",
"..............................++",
".............@@...............++",
".............@@@@.............++",
"..............@@@@............++",
"  ............@@@@............++",
"  ............@@@@............++",
".............@@@@@............++",
".............@@@@.............++",
"  ..........@@@@@...............",
"  .........@@@@@@...............",
"  .........@@@@@@@............++",
"  ..........@@@@@@............++",
"  .........@@@@@@@@.............",
"  .........@@@@@@@@@............",
"...........@@@@@@@@@@.........++",
"...........@@@@@@@@@@.........++",
"...........@@@@@@@@@@.........++",
"...........@@@@#@#@@@.........++",
"  ..........@@@@@@@@............",
"  ...........@@@@@@.............",
"  ............@@@@..............",
"  ..............................",
"  ............................++",
"  ............................++",
"  ............................++",
"  ............................++",
"++++++....++..++++++++..++++++++",
"++++++....++..++++++++..++++++++"};
