/* XPM */
static char * iooo_d_three_xpm[] = {
"32 32 5 1",
" 	c #222222",
".	c #483B3A",
"+	c #775C55",
"@	c #0E0C0C",
"#	c #673931",
"      ..        ......  ..      ",
"      ..        ......  ..      ",
"  ............................++",
"  ............................++",
"..............................++",
"..............................++",
"..............................++",
"..............................++",
"  ............................++",
"  ............................++",
"......................@@@@....++",
"....................@@@@@@....++",
"  .................@@@@@@@......",
"  .................@@@@@@@@.....",
"  ................@@@@@@@@@...++",
"  ................@@@@@#@#@...++",
"  ................@@@@@@@@@.....",
"  ................@@@@@@@@@.....",
"..................@@@@@@@@@...++",
"..................@@@@@@@@@...++",
"................@@@@@@@@@@@@@.++",
"..............@@@@@@@@@@@@@@@@++",
"  ...........@@@@@@@@@@@@@@@@@@.",
"  ..........@@@@@@@@@@@@@@@@@@@.",
"  .........@@@@@@@@@@@@@@@@@@@@.",
"  ........@@@@@@@@@@@@@@@@@@@@..",
"  ........@@@@@@@@@@@@@@@@@@@.++",
"  ........@@@@@@@@@@@@@@@@@@..++",
"  ........@@@@@@@@@@@@@@@@@...++",
"  ........@@@@@@@@@@@@@@@.....++",
"++++++....@@@@@@@@@@@@@@++++++++",
"++++++....@@@@@@@@@@@@@.++++++++"};
