/* XPM */
static char * oooi_d_one_xpm[] = {
"31 32 7 1",
" 	c #222222",
".	c #483B3A",
"+	c #0E0C0C",
"@	c #171516",
"#	c #373334",
"$	c #775C55",
"%	c #000000",
"      ..   ++++++++++.@@## @#  ",
"      ..   ++++++++++@@#@@@#   ",
"  .........+++++++++.#@@.##...$",
"  .........+++++++++..@@@.....$",
"...........+++++++++.%.@@.....$",
"...........+++++++++..@@@%....$",
"...........++++++++..@@@.%....$",
"...........+++++++++.@@@.%....$",
"  .........+++++++++..@@%.....$",
"  .........+++++++++..@.......$",
"............++++++++..@.......$",
"............++++++++..@.......$",
"  ..........++++++++..@........",
"  ..........+++++++++.@........",
"  ...........++++++++.%.......$",
"  ...........++++++++.%.......$",
"  ...........+++++++...........",
"  ...........++++++++..........",
".............+++++++..........$",
".............+++++++..........$",
"..............+++++...........$",
"..............+++++...........$",
"  ............+++++............",
"  .............++++............",
"  .............+++.............",
"  .............+++.............",
"  ..............++............$",
"  ..............++............$",
"  ..............++............$",
"  ...............+............$",
"$$$$$$....$$..$$$+$$$$..$$$$$$$",
"$$$$$$....$$..$$$+$$$$..$$$$$$$"};
