/* XPM */
static char * oooi_attack_xpm[] = {
"32 32 9 1",
" 	c #222222",
".	c #483B3A",
"+	c #807B7A",
"@	c #595757",
"#	c #373334",
"$	c #171516",
"%	c #271F1B",
"&	c #775C55",
"*	c #323232",
"      ..        ...... +++@@@@@@",
"      ..        ...... +++@@@@@@",
"  .....................+++@@@@@@",
"  .....................+++@@@@@@",
"......................++++@@@@@@",
"......................+++@@@@@@@",
"......................+++@@@@@@@",
"#$...................++++@@@@@@@",
"#$$..................++++@@@@@@@",
"$$%%%................++++@@@@@@&",
"...%%%%.............++++@@@@@@@&",
".....%%%%...........++++@@@@@@@&",
"  .....%%%%........+++++@@@@@@@.",
"  .......%%%%......++++@@@@@@@..",
"  .........%%%%..++++++@@@@@@@&&",
"  ...........%%%%+++++@@@@@@@.&&",
"  .............%%+++++@@@@@@....",
"  ..............+++++@@@@@@@....",
"...............+++++@@@@@@....&&",
"..............++++++@@@@@.....&&",
".............++++++@@@@*......&&",
"...........+++++++@@@@@*......&&",
"  ........+++++++@@@@@*.........",
"  .......++++++@@@@@@*..........",
"  .....++++++@@@@@@**...........",
"  ...++++++@@@@@@@*.............",
"  .+++++@@@@@@@@**............&&",
" ++++@@@@@@@@@**..............&&",
"++@@@@@@@@@***................&&",
"***********...................&&",
"&&&&&&....&&..&&&&&&&&..&&&&&&&&",
"&&&&&&....&&..&&&&&&&&..&&&&&&&&"};
