/* XPM */
static char * oooi_two_xpm[] = {
"32 32 4 1",
" 	c #373334",
".	c #222222",
"+	c #483B3A",
"@	c #775C55",
" .....++........++++++..++......",
"......++........++++++..++......",
"..++++++++++++++++++++++++++++@@",
"..++++++++++++++++++++++++++++@@",
"++++++++++++++++++++++++++++++@@",
"++++++++++++++++++++++++++++++@@",
"++++++++++++++++++++++++++++++@@",
"++++++++++++++++++++++++++++++@@",
"..++++++++++++++++++++++++++++@@",
"..++++++++++++++++++++++++++++@@",
"++++++++++++++++++++++++++++++@@",
"++++++++++++++++++++++++++++++@@",
"..++++++++++++++++++++++++++++++",
"..++++++++++++++++++++++++++++++",
"..++++++++++++++++++++++++++++@@",
"..++++++++++++++++++++++++++++@@",
"..++++++++++++++++++++++++++++++",
"..++++++++++++++++++++++++++++++",
"++++++++++++++++++++++++++++++@@",
"++++++++++++++++++++++++++++++@@",
"++++++++++++++++++++++++++++++@@",
"++++++++++++++++++++++++++++++@@",
"..++++++++++++++++++++++++++++++",
"..++++++++++++++++++++++++++++++",
"..++++++++++++++++++++++++++++++",
"..++++++++++++++++++++++++++++++",
"..++++++++++++++++++++++++++++@@",
"..++++++++++++++++++++++++++++@@",
"..++++++++++++++++++++++++++++@@",
"..++++++++++++++++++++++++++++@@",
"@@@@@@++++@@++@@@@@@@@++@@@@@@@@",
"@@@@@@++++@@++@@@@@@@@++@@@@@@@@"};
