/* XPM */
static char * corner_t_left_xpm[] = {
"32 32 6 1",
" 	c #000000",
".	c #222222",
"+	c #D3BFA9",
"@	c #AA8D7A",
"#	c #775C55",
"$	c #483B3A",
"                                ",
"                                ",
"                                ",
"                                ",
"                                ",
"                     ...........",
"                     .+@@.@@@@@@",
"                     .+@@.@@@@@@",
"                     .+@@.@@@@++",
"                     ...........",
"                     .+@@.#####.",
"                     .+@@.$$$$$.",
"                     .+@@.$$$$$.",
"                     .+@@.......",
"                     .+@$.#.##.#",
"                     .....$$$$.$",
"                     .+@@.$$$$.$",
"                     .+@@.......",
"                     .+@@.##.###",
"                     .+@@.$$.$$$",
"                     .+@@.$$$.$$",
"                     .@@@.......",
"                     .....##.##.",
"                     .+++.$..$$.",
"                     .@@@.$$.$$$",
"                     .@@@.......",
"                     .@@@...$$..",
"                     .@@@..$$.$$",
"                     .@@@.$$$$$$",
"                     .....$$$$$$",
"                     .+++.###$$#",
"                     .@@@.####$$"};
