/* XPM */
static char * wall_right_xpm[] = {
"32 32 6 1",
" 	c #775C55",
".	c #222222",
"+	c #AA8D7A",
"@	c #000000",
"#	c #483B3A",
"$	c #D3BFA9",
"      .+++.@@@@@@@@@@@@@@@@@@@@@",
"      .+++.@@@@@@@@@@@@@@@@@@@@@",
"  ####.+++.@@@@@@@@@@@@@@@@@@@@@",
"  ####.+++.@@@@@@@@@@@@@@@@@@@@@",
"  ####.+++.@@@@@@@@@@@@@@@@@@@@@",
"  ####.+++.@@@@@@@@@@@@@@@@@@@@@",
"######.....@@@@@@@@@@@@@@@@@@@@@",
"######.$$$.@@@@@@@@@@@@@@@@@@@@@",
"######.+++.@@@@@@@@@@@@@@@@@@@@@",
"######.+++.@@@@@@@@@@@@@@@@@@@@@",
"  ####.+++.@@@@@@@@@@@@@@@@@@@@@",
"  ####.+++.@@@@@@@@@@@@@@@@@@@@@",
"  ####.+++.@@@@@@@@@@@@@@@@@@@@@",
"  ####.....@@@@@@@@@@@@@@@@@@@@@",
"######.$$$.@@@@@@@@@@@@@@@@@@@@@",
"######.+++.@@@@@@@@@@@@@@@@@@@@@",
"  ####.+++.@@@@@@@@@@@@@@@@@@@@@",
"  ####.+++.@@@@@@@@@@@@@@@@@@@@@",
"######.+++.@@@@@@@@@@@@@@@@@@@@@",
"######.+++.@@@@@@@@@@@@@@@@@@@@@",
"  ####.+++.@@@@@@@@@@@@@@@@@@@@@",
"  ####.+++.@@@@@@@@@@@@@@@@@@@@@",
"  ####.....@@@@@@@@@@@@@@@@@@@@@",
"  ####.$$$.@@@@@@@@@@@@@@@@@@@@@",
"  ####.+++.@@@@@@@@@@@@@@@@@@@@@",
"  ####.+++.@@@@@@@@@@@@@@@@@@@@@",
"  ####.+++.@@@@@@@@@@@@@@@@@@@@@",
"  ####.+++.@@@@@@@@@@@@@@@@@@@@@",
"  ####.+++.@@@@@@@@@@@@@@@@@@@@@",
"  ####.....@@@@@@@@@@@@@@@@@@@@@",
".......$$$.@@@@@@@@@@@@@@@@@@@@@",
".......+++.@@@@@@@@@@@@@@@@@@@@@"};
