/* XPM */
static char * iooo_spawn_two_xpm[] = {
"32 32 8 1",
" 	c #222222",
".	c #483B3A",
"+	c #323232",
"@	c #271F1B",
"#	c #595757",
"$	c #775C55",
"%	c #807B7A",
"&	c #0E0C0C",
"      ..        ......  ..      ",
"      ..        ......  ++@     ",
"  .....................+##@@..$$",
"  ....................+###@@..$$",
".....................+#####@@.$$",
".....................+####%@@.$$",
"....................+####%%%@@$$",
"...................+####%%%%@@$$",
"  .................+###%%%%%%@@$",
"  ................+####%%%%%.@@$",
"..................+###%%%%%...@@",
".................+####%%%%....@@",
"  ...............+###%%%%......@",
"  ...............+###%%%%......@",
"  ..............+###%%%%......$$",
"  ..............+###%%%.......$&",
"  ..............+###%%.........&",
"  ..............+##%%%.........&",
"................+##%%.........$&",
"................+##%%.........$&",
"................+#%%.........&&&",
"................+#%%....&&&&&&&&",
"  ..............+#%.&&&&&&&&&&&&",
"  ..............+%%.&&&&&&&&&&&&",
"  ..............+%....&&&&&&&&&&",
"  ..............+%......&&&&&&&&",
"  ...............%.....&&&&&&&&&",
"  .....................&&&&&&&&&",
"  .....................&&&&&&&&&",
"  .....................&&&&&&&&&",
"$$$$$$....$$..$$$$$$$$.&&&&&&&&&",
"$$$$$$....$$..$$$$$$$$.&&&&&&&&&"};
