/* XPM */
static char * iooo_attack_xpm[] = {
"32 32 9 1",
" 	c #222222",
".	c #483B3A",
"+	c #595757",
"@	c #CBC6C1",
"#	c #807B7A",
"$	c #775C55",
"%	c #0E0C0C",
"&	c #673931",
"*	c #171516",
"      ..        ......  .+++++++",
"      ..        .....+++++++++++",
"  ...............+++++++++++++++",
"  .............+++++++++++++++++",
".............+++++++++++++++++++",
"...........+++++++++++++++++++++",
".........++++++++++++++++++@####",
"........++++++++++++++........##",
"  .....+++++++++++............$$",
"  ....+++++++++...............$$",
".....++++++++.................$$",
"....+++++++...................$$",
"  ..+++++.......................",
"  ++++++........................",
"  +++++.......................$$",
" +++++........................$$",
"+++++...........................",
"++++...........%%%%.............",
"++++.........%%%%%%...........$$",
"+++.........%%%%%%%...........$$",
"++..........%%%%%%%%..........$$",
"++.........%%%%%%%%%..........$$",
"+ .........%%%%%&%&%............",
"+ ........%%%%%%%%%%%...........",
"+ ........%%%%%%%%%%%...........",
"  ........%%%%%%%%%%%...........",
"  ........%%%%%%%%%%%.........$$",
"  .......%%%%%%%%%%%%%........$$",
"  .....%%%%%%%%%%%%%%%%.......$$",
"  ....%%%%%%%%%%%%%%%%%%......$$",
"$$$$$%%%%%%%%%%%%%%%%%%%%$$$$$$$",
"$$$$%%%%%%%%%%%%%%%%%%%%%*$$$$$$"};
