/* XPM */
static char * oioo_attack_xpm[] = {
"32 32 5 1",
" 	c #595757",
".	c #222222",
"+	c #483B3A",
"@	c #775C55",
"#	c #807B7A",
"     .++........++++++..++......",
"         .......++++++..++......",
"            ++++++++++++++++++@@",
"               +++++++++++++++@@",
"                  ++++++++++++@@",
"                   +++++++++++@@",
"########             +++++++++@@",
"############          ++++++++@@",
"..++++########         +++++++@@",
"..+++++++++####         ++++++@@",
"++++++++++++####         +++++@@",
"+++++++++++++#####        ++++@@",
"..+++++++++++++####       ++++++",
"..+++++++++++++####         ++++",
"..+++++++++++++++###        ++@@",
"..++++++++++++++++###        +@@",
"..++++++++++++++++####        ++",
"..+++++++++++++++++####       ++",
"++++++++++++++++++++####       @",
"+++++++++++++++++++++###       @",
"+++++++++++++++++++++###       @",
"++++++++++++++++++++++###       ",
"..++++++++++++++++++++###       ",
"..++++++++++++++++++++###       ",
"..++++++++++++++++++++###       ",
"..++++++++++++++++++++###       ",
"..++++++++++++++++++++####      ",
"..+++++++++++++++++++++###      ",
"..+++++++++++++++++++++###      ",
"..+++++++++++++++++++++###      ",
"@@@@@@++++@@++@@@@@@@@+###      ",
"@@@@@@++++@@++@@@@@@@@+###      "};
