/* XPM */
static char * ooio_d_four_xpm[] = {
"32 32 4 1",
" 	c #222222",
".	c #483B3A",
"+	c #0E0C0C",
"@	c #775C55",
"      ..  ++++++++++..  ..      ",
"      ..   ++++++++...  ..      ",
"  .........++++++++...........@@",
"  .........++++++++...........@@",
"...........++++++++...........@@",
"...........+++++++............@@",
"...........++++++++...........@@",
"...........++++++++...........@@",
"  ..........+++++++...........@@",
"  ..........+++++++...........@@",
"............+++++++...........@@",
".............++++++...........@@",
"  ...........+++++++............",
"  ............++++++............",
"  .............+++++..........@@",
"  .............++++...........@@",
"  .............+++++............",
"  ..............+++.............",
"................+++...........@@",
"................++............@@",
"................++............@@",
".................+............@@",
"  ...............+..............",
"  ..............................",
"  ..............................",
"  ..............................",
"  ............................@@",
"  ............................@@",
"  ............................@@",
"  ............................@@",
"@@@@@@....@@..@@@@@@@@..@@@@@@@@",
"@@@@@@....@@..@@@@@@@@..@@@@@@@@"};
