/* XPM */
static char * ooio_d_two_xpm[] = {
"32 32 5 1",
" 	c #222222",
".	c #483B3A",
"+	c #0E0C0C",
"@	c #775C55",
"#	c #373334",
"      ..        ......  ..      ",
"      ..        ......  ..      ",
"  ..+.........................@@",
"  ..+#........................@@",
".....#........................@@",
"..............................@@",
"..............................@@",
"..............................@@",
"  ............................@@",
"  ............................@@",
"..............................@@",
"..............................@@",
"  ..............................",
"  ..............................",
"  ............................@@",
"  ............................@@",
"  ..............................",
"  ..............................",
"..............................@@",
"..............................@@",
"..............................@@",
"..............................@@",
"  ..............................",
"  ..............................",
"  ..............................",
"  ..............................",
"  ............................@@",
"  ............................@@",
"  ............................@@",
"  ............................@@",
"@@@@@@....@@..@@@@@@@@..@@@@@@@@",
"@@@@@@....@@..@@@@@@@@..@@@@@@@@"};
