/* XPM */
static char * skeleton_attack_xpm[] = {
"32 32 13 1",
" 	c #53A03B",
".	c #FFFFFF",
"+	c #000000",
"@	c #C6BBB9",
"#	c #947B6B",
"$	c #6E5649",
"%	c #503625",
"&	c #36271C",
"*	c #342319",
"=	c #677598",
"-	c #8F9AB0",
";	c #B6BEC8",
">	c #3D7636",
"         .........              ",
"      ...............           ",
"    ..      ...........         ",
"               ..........       ",
"                 .........      ",
"                  .........     ",
"                   .........    ",
"                    .........   ",
"                     .........  ",
"                     .........  ",
"                      ......... ",
"                      ......... ",
"       ++++++          ........ ",
"      +@@@@@@+         .........",
"     +@@@@@@@@+         ........",
"    +@@@@@@@@@+         ........",
"    +@@@###@##+         ........",
"    +@@@@++@++          ........",
"    +@@@@++@+++         ........",
"   +###@@@@@@@+         ....... ",
"   +###$$@$@$@+         ....... ",
"  +##@@@$$$%%$+         ....... ",
"  +#&&$$&$#%*          .......  ",
"   +#@@##@@**=-+++     .......  ",
"  +#@@@+%@@**==;;;++++.......   ",
" >+@@@++**#+%*+---;;;;......    ",
">>+@@+>+##++**+==----......     ",
">>>>>>>>>>>>++ ++++++.....      ",
" >>>>>>>>>>>        .....       ",
"                   ....         ",
"                  ...           ",
"                 .              "};
