/* XPM */
static char * door_xpm[] = {
"32 32 17 1",
" 	c None",
".	c #000000",
"+	c #414B66",
"@	c #677598",
"#	c #8F9AB0",
"$	c #242A3D",
"%	c #21110D",
"&	c #755338",
"*	c #503625",
"=	c #342319",
"-	c #E9CE7C",
";	c #D99945",
">	c #509B66",
",	c #4E9864",
"'	c #1B202F",
")	c #323A50",
"!	c #515D79",
" ... .... ...  ..... .... ...  .",
".+++.@@@+.@@+..+@@@+.@@@+.@@+..@",
"+@@@+@@@@+@@@.+@@@@@+@@@@+@@@.@@",
"@@@@@@@@@+@@@+@@@@@@@@@@@+@@@+@@",
"@@@@@#@@@$+@@$@@@@@@@#@@@$+@@$@@",
"@@##@+##+@@@++@@####@+##+@@@@@++",
"@#@@#$++##@@@+@#@@@@#$++######@+",
"+@@@@$$$@@@@$$+@@@@@@$$$@@@@@@$$",
"@@@++@$@@@+++$@@@@+++@$@@@@@+++$",
"@+++++$@@++++$@+++++++$@@@+++++$",
"+@++++$++@+++$+@++++++$++++@+++$",
"$++++$$$@%%%%%%%%%%%%%%@++++++$$",
"$$@@@+$$%&&&&&&&&&&&&&&%$$$$$$$$",
"$@@++@$+%&&&&&&&&&&&&&&%@@@@@@@$",
"@++@+++@%*============*%@@@@@@@@",
"++++++@@%&=**=****=**=&%@++++++@",
"+++++$@+%&=*******=**=&%++++++++",
"$$$$$$$+%&=**********=&%+++++++$",
"@@$$+@@@%&=**********=&%@+$$@@@@",
"+@@$@@@+%&=********-;=&%+@$@@@++",
"@++$@+++%&=********;;=&%++$@++++",
"+++$$+++%&=********===&%+$$+++++",
"++$$$$$$%&=**=*******=&%$$$$++++",
"+@@@@$$$%&=**=*******=&%@@@@@@$$",
"@@@++@$@%&=**=****=**=&%@@@@+++$",
"@+++++$@%..............%@@+++++$",
"+@++++$+.>>>>>>>>>>>>>,.+++@+++$",
"$++++$$..>>>>>>>>>>>>>>..+++++$$",
"$$@@@+'..>>>>>>>>>>>>>>..$$$$$$$",
"$@@++@'.>>>>>>>>>>>>>>>>.@@@@@@$",
"@++@++).>>>>>>>>>>>>>>>>.!@@@@@@",
"........>>>>>>>>>>>>>>>>........"};
