/* XPM */
static char * 010010000_xpm[] = {
"32 32 17 1",
" 	c #755338",
".	c #000000",
"+	c #677598",
"@	c #503625",
"#	c #414B66",
"$	c #242A3D",
"%	c #8F9AB0",
"&	c #515D79",
"*	c #5D6A8A",
"=	c #576382",
"-	c #4A546E",
";	c #60432D",
">	c #414B62",
",	c #10131D",
"'	c #0A0502",
")	c #402B1D",
"!	c #5F432C",
"            .+++++++.       @   ",
"            .+++++++.       @   ",
"@@@@ @@    @.++++++#.@@    @@@@@",
"            .$+++##+.           ",
"            .$$####+.           ",
"            .#++%%%#.           ",
"     @      .+++++%%.@          ",
"@@@@@@@@ @@ .++++++%.@@@ @@    @",
" @          .++++++%.           ",
"            .+++++++.           ",
"            .$+++++#.           ",
"            .+#++%%%.           ",
"@@@   @@@@@@.+#+++++. @@@@@@@@@@",
"            .&$++++#.       @   ",
"            .*=+++++.           ",
"            .--+++++.           ",
"           ;.+>#+++&.       @   ",
"            .,.++++..       @   ",
"@@@@ @@    @@'.....)!@@    @@@@@",
"                                ",
"                                ",
"                                ",
"     @               @          ",
"@@@@@@@@ @@    @@@@@@@@@ @@    @",
" @               @              ",
"                                ",
"                                ",
"                                ",
"@@@   @@@@@@@@@@@@@   @@@@@@@@@@",
"            @               @   ",
"                                ",
"                                "};
