/* XPM */
static char * 000010010_xpm[] = {
"32 32 16 1",
" 	c #755338",
".	c #503625",
"+	c #140B05",
"@	c #000000",
"#	c #5F432C",
"$	c #10131D",
"%	c #677598",
"&	c #60432D",
"*	c #414B62",
"=	c #414B66",
"-	c #515D79",
";	c #4A546E",
">	c #5D6A8A",
",	c #576382",
"'	c #242A3D",
")	c #8F9AB0",
"            .               .   ",
"            .               .   ",
".... ..    ......... ..    .....",
"                                ",
"                                ",
"                                ",
"     .               .          ",
"........ ..    ......... ..    .",
" .               .              ",
"                                ",
"                                ",
"                                ",
"...   .............   ..........",
"            .+@@@@@##       .   ",
"            @$@%%%%@@           ",
"           &@%*=%%%-@           ",
"            @;;%%%%%@       .   ",
"            @>,%%%%%@       .   ",
".... ..    .@-'%%%%=@..    .....",
"            @%=%%%%%@           ",
"            @%=%%)))@           ",
"            @'%%%%%=@           ",
"     .      @%%%%%%%@.          ",
"........ .. @%%%%%%)@... ..    .",
" .          @%%%%%%)@           ",
"            @%%%%%))@           ",
"            @=%%)))=@           ",
"            @''====%@           ",
"...   ......@'%%%==%@ ..........",
"            @%%%%%%=@       .   ",
"            @%%%%%%%@           ",
"            @%%%%%%%@           "};
