/* XPM */
static char * 000111000_xpm[] = {
"32 32 6 1",
" 	c #509B66",
".	c #000000",
"+	c #414B66",
"@	c #677598",
"#	c #8F9AB0",
"$	c #242A3D",
" ... .... ...  ..... .... ...  .",
".+++.@@@+.@@+..+@@@+.@@@+.@@+..@",
"+@@@+@@@@+@@@.+@@@@@+@@@@+@@@.@@",
"@@@@@@@@@+@@@+@@@@@@@@@@@+@@@+@@",
"@@@@@#@@@$+@@$@@@@@@@#@@@$+@@$@@",
"@@##@+##+@@@++@@####@+##+@@@@@++",
"@#@@#$++##@@@+@#@@@@#$++######@+",
"+@@@@$$$@@@@$$+@@@@@@$$$@@@@@@$$",
"@@@++@$@@@+++$@@@@+++@$@@@@@+++$",
"@+++++$@@++++$@+++++++$@@@+++++$",
"+@++++$++@+++$+@++++++$++++@+++$",
"$++++$$$++++$$$++++++$$$++++++$$",
"$$@@@+$$$$$$$$$$$@@@@+$$$$$$$$$$",
"$@@++@$+@@@@@$$$@@@++@$+@@@@@@@$",
"@++@+++@@@@@@@$@+++@+++@@@@@@@@@",
"++++++@@@++++@$+++++++@@@++++++@",
"+++++$@+++++++$++++++$@+++++++++",
"$$$$$$$++++++$$$$$$$$$$++++++++$",
"@@$$+@@@@+$$@@@@@@$$+@@@@+$$@@@@",
"+@@$@@@++@$@@@+++@@$@@@++@$@@@++",
"@++$@+++++$@++++@++$@+++++$@++++",
"+++$$++++$$++++++++$$++++$$+++++",
"++$$$$$$$$$$++++++$$$$$$$$$$++++",
"+@@@@$$$@@@@$$+@@@@@@$$$@@@@@@$$",
"@@@++@$@@@+++$@@@@+++@$@@@@@+++$",
"@+++++$@@++++$@+++++++$@@@+++++$",
"+@++++$++@+++$+@++++++$++++@+++$",
"$++++$$$++++$$$++++++$$$++++++$$",
"$$@@@+$$$$$$$$$$$@@@@+$$$$$$$$$$",
"$@@++@$+@@@@@$$$@@@++@$+@@@@@@@$",
"@++@+++@@@@@@@$@+++++++@@@@@@@@@",
"................................"};
