/* XPM */
static char * 000111111_xpm[] = {
"32 32 5 1",
" 	c #509B66",
".	c #21110D",
"+	c #347B2C",
"@	c #3B7251",
"#	c #53A03B",
"                                ",
"                                ",
"...          ......             ",
"...          ......             ",
"+++......@@..++++++...@@@@......",
"+++......@@..++++++...@@@@......",
"+++++##++....++#######....++####",
"+++++##++....++#######....++####",
"#++######++##++###########++####",
"#++######++##++###########++####",
"############################++##",
"############################++##",
"################################",
"################################",
"################################",
"################################",
"################################",
"################################",
"################################",
"################################",
"################################",
"################################",
"################################",
"################################",
"################################",
"################################",
"################################",
"################################",
"################################",
"################################",
"################################",
"################################"};
