/* XPM */
static char * 111111000_xpm[] = {
"32 32 9 1",
" 	c #53A03B",
".	c #347B2C",
"+	c #114517",
"@	c #342319",
"#	c #503625",
"$	c #755338",
"%	c #21110D",
"&	c #3B7251",
"*	c #509B66",
"                                ",
"   ..        ..           ..    ",
"   ..        ..           ..    ",
" ..++..    ....         ..++    ",
" ..++..    ....         ..++    ",
".++@@++....++++..     ..++++..  ",
".++@@++....++++..     ..++++..  ",
".++@@##++++##$$++++.....++$$++..",
".++@@##++++##$$++++.....++$$++..",
"+$$####$$$$$$$$$$##+++++$$$$$$++",
"+$$####$$$$$$$$$$##+++++$$$$$$++",
"$$$##$$$$$$$$$$$$$$$$$$$$$$$$$$$",
"$$$##$$$$$$$$$$$$$$$$$$$$$$$$$$$",
"$$$$$$$$$$$$$$$$$$$$$$$$$$$$$$$$",
"$$$$$$$$$$$$$$$$$$$$$$$$$$$$$$$$",
"$$$$$$$$$$$$$$$$$$$$$$##$$$$$$$$",
"$$$$$$$$$$$$$$$$$$$$$$##$$$$$$$$",
"$$$$$$$$$$$$$$$$$$$$$$##$$$$$$$$",
"$$$$$$$$$$$$$$$$$$$$$$##$$$$$$$$",
"$$$$$$$$$$$$$$$$$$$$$$##$$$$$$$$",
"$$$$$$$$$$$$$$$$$$$$$$##$$$$$$$$",
"$$$##$$$$$$$$$$$$$$$$$####$$$$$$",
"$$$##$$$$$$$$$$$$$$$$$####$$$$$$",
"$$$##$$$$$$$$$$$$$$$$$####$$$$$$",
"$##%%$$$$$$$$$$$$$$#####%%##$$$$",
"$##%%$$$$$$$$$$$$$$#####%%##$$$$",
"%%%%%##$$$$$$$$%%%%%%%%%&&%%%%%%",
"%%%%%##$$$$$$$$%%%%%%%%%&&%%%%%%",
"&&&&&%%%%%%%%%%&&&&&&&&&&&&&&&&&",
"&&&&&%%%%%%%%%%&&&&&&&&&&&&&&&&&",
"&&&&&&&&&&&&&&&&&*************&&",
"&&&&&&&&&&&&&&&&&*************&&"};
