/* XPM */
static char * 110110110_xpm[] = {
"32 32 8 1",
" 	c #4D8AB3",
".	c #425B9E",
"+	c #21110D",
"@	c #755338",
"#	c #082B0C",
"$	c #296640",
"%	c #509B66",
"&	c #503625",
"                        .+@@#$%%",
"                        ..+&#$%%",
"                        ..+#$$$%",
"                        .+@#$%%%",
"                        .+@#$%%%",
"                        .+#$%%%%",
"                        .+#$%%%%",
"                       ..+#$$$%%",
"                       .+@#$%%%%",
"                       .+@#$%%%%",
"                       .+#$%%%%%",
"                       .+#$%%%%%",
"                       .+#$%%%%%",
"                       +&#$$%%%%",
"                       +&&#$$$%%",
"                      .+&@@#$%%%",
"                      .+@@#$$%%%",
"                      .+@@#$%%%%",
"                      .+@@#$%%%%",
"                      ..+@#$%%%%",
"                      ..+@#$$%%%",
"                       .+@@#$%%%",
"                       ..+&#$%%%",
"                       ..+#$$$%%",
"                       .+@#$%%%%",
"                       .+@#$%%%%",
"                       .+#$%%%%%",
"                       .+#$%%%%%",
"                       .+#$%%%%%",
"                       .+@#$%%%%",
"                       .+&#$%%%%",
"                       ..+@#$$%%"};
