/* XPM */
static char * 111111000_xpm[] = {
"32 32 5 1",
" 	c #4D8AB3",
".	c #425B9E",
"+	c #21110D",
"@	c #296640",
"#	c #509B66",
"                                ",
"                                ",
"                                ",
"                                ",
"                                ",
"                                ",
"                                ",
"                                ",
"                                ",
"                                ",
"                                ",
"                                ",
"                                ",
"                                ",
"                                ",
"                                ",
"                                ",
"                                ",
"                                ",
"                                ",
"                                ",
"                                ",
"                                ",
"                                ",
"                                ",
"                                ",
"        .++.    +++     .++.    ",
"++.+..+++@@+++.+@@@+..+++@@+++ .",
"@@+#++@@@@@@@@++@###++@@@@@@@@++",
"@@@###@###@###@#@#####@###@###@@",
"#@##############################",
"################################"};
