/* XPM */
static char * 000110110_xpm[] = {
"32 32 6 1",
" 	c #509B66",
".	c #21110D",
"+	c #347B2C",
"@	c #53A03B",
"#	c #114517",
"$	c #3B7251",
"  ......                        ",
"  ......                        ",
"..++++++....   ....             ",
"..++++++....   ....             ",
"++++@@@@@@++...++++..           ",
"++++@@@@@@++...++++..           ",
"++@@@@@@@@@@+++@@@@++..         ",
"++@@@@@@@@@@+++@@@@++..         ",
"++@@@@@@@@@@@@@@@@@++..         ",
"++@@@@@@@@@@@@@@@@@++..         ",
"@@@@@@@@@@@@@@@@@++....         ",
"@@@@@@@@@@@@@@@@@++....         ",
"@@@@@@@@@@@@@@@@@@@++....       ",
"@@@@@@@@@@@@@@@@@@@++....       ",
"@@@@@@@@@@@@@@@@@@@++##..       ",
"@@@@@@@@@@@@@@@@@@@++##..       ",
"@@@@@@@@@@@@@@@@@@@++##..       ",
"@@@@@@@@@@@@@@@@@++++##..$$     ",
"@@@@@@@@@@@@@@@@@++++##..$$     ",
"@@@@@@@@@@@@@@@@@@@@@++##..     ",
"@@@@@@@@@@@@@@@@@@@@@++##..     ",
"@@@@@@@@@@@@@@@@@@@@@@@++..$$   ",
"@@@@@@@@@@@@@@@@@@@@@@@++..$$   ",
"@@@@@@@@@@@@@@@@@@@@@@@@@##..   ",
"@@@@@@@@@@@@@@@@@@@@@@@@@##..   ",
"@@@@@@@@@@@@@@@@@@@@@@@++##..   ",
"@@@@@@@@@@@@@@@@@@@@@@@++##..   ",
"@@@@@@@@@@@@@@@@@@@@@@@++##..$$ ",
"@@@@@@@@@@@@@@@@@@@@@@@++##..$$ ",
"@@@@@@@@@@@@@@@@@@@@@++####..$$ ",
"@@@@@@@@@@@@@@@@@@@@@++####..$$ ",
"@@@@@@@@@@@@@@@@@++++####..$$$$ "};
