/* XPM */
static char * 110110110_xpm[] = {
"32 32 8 1",
" 	c #53A03B",
".	c #347B2C",
"+	c #114517",
"@	c #21110D",
"#	c #3B7251",
"$	c #509B66",
"%	c #503625",
"&	c #755338",
"                 ....++++@@####$",
"                   ..++%%@@##$$$",
"                   ..++%%@@##$$$",
"                     ..++%%@@$$$",
"                     ..++%%@@$$$",
"                       ..++@@$$$",
"                       ..++@@$$$",
"                       ..++@@$$$",
"                       ..++@@##$",
"                       ..++@@##$",
"                       ..++@@##$",
"                       ..++@@##$",
"                       ..++@@##$",
"                       ..++@@##$",
"                     ....++%%@@$",
"                     ....++%%@@$",
"                 ......++%%%%@@$",
"                 ......++%%%%@@$",
"                   ..++&&&&%%@@#",
"                   ..++&&&&%%@@#",
"                     ..++&&&&@@#",
"                     ..++&&&&@@#",
"                   ....++&&&&@@#",
"                   ....++&&&&@@#",
"                   ++++%%&&&&@@#",
"                   ++++%%&&&&@@#",
"                     ..++%%@@###",
"                     ..++%%@@###",
"                       ++++@@###",
"                       ++++@@###",
"          ..         ..++&&%%@@#",
"          ..         ..++&&%%@@#"};
