/* XPM */
static char * 000111000_bottom_xpm[] = {
"32 32 3 1",
" 	c #509B66",
".	c #21110D",
"+	c #296640",
"                                ",
"                                ",
"                                ",
"                                ",
"                                ",
"                                ",
"                                ",
"                                ",
"                                ",
"                                ",
"                                ",
"                                ",
"                                ",
"                                ",
"                                ",
"                                ",
"                                ",
".                              +",
"..      ..     ...      ..     .",
"++.++...++... .+++.  ...++...+.+",
"   ..++++++++..+   ..++++++++.. ",
"     +   +   + +     +   +   +  ",
"                                ",
"                                ",
"                                ",
"                                ",
"                                ",
"                                ",
"                                ",
"                                ",
"                                ",
"                                "};
