/* XPM */
static char * exit_xpm[] = {
"32 32 12 1",
" 	c #53A03B",
".	c #347B2C",
"+	c #2D2016",
"@	c #114517",
"#	c #755338",
"$	c #503625",
"%	c #040504",
"&	c #302A26",
"*	c #2E4F3B",
"=	c #3B7251",
"-	c #21110D",
";	c #509B66",
"                                ",
"                                ",
"                                ",
"             .......            ",
"            ...++....           ",
"           ..@++++.....         ",
"          ..@@+#+++++...        ",
"...    .....$+###+++++...      .",
"...........$$+$#####++....   ...",
"@@@@@@@...@@++$$#####+@... ...@@",
"@##$$$@@.@@++++$$#####+@.....@@@",
"###$$##@@@++##++$$$###++@...@@##",
"###$$##@+++###++++$$$##++@..@###",
"######@@+#####+%%+++$$$$+@.@####",
"######++####$$+%%%%++++$+@@@####",
"######+####$$+%%%%%%%+++++@#####",
"######+###$$++%%%%%%%%+$#+######",
"#####++++++++%%%%%&&&%+$#++#####",
"####++##$++%%%%%%&&&&&+$##+#####",
"####+###$++%%%%%&&&&&&+$##++####",
"###+####$+%%%%%&&*&&&&+$###+####",
"##+#####$+%%%%*****&&&+$###+####",
"#++#####$++%%%******&&+$###+####",
"#+######$++%%****=****+$###+####",
"#+####$$$+%%****====***+$##++###",
"#++##$$+++%****======**+$$##+###",
"-+++$$+++*****=========++$###+--",
"--++++==================++$$++--",
"==========================++++==",
"================================",
"=================;;;;;;;;;;;;;==",
"=================;;;;;;;;;;;;;=="};
