/* XPM */
static char * road_xpm[] = {
"32 32 14 1",
" 	c #509B66",
".	c #414B66",
"+	c #677598",
"@	c #296640",
"#	c #4D9066",
"$	c #446266",
"%	c #47516D",
"&	c #337349",
"*	c #2F6149",
"=	c #395759",
"-	c #4A9260",
";	c #3D5160",
">	c #404D65",
",	c #3A555B",
"                                ",
"          ...                   ",
"      ....+++.@@     ...        ",
"    ..+++.++++..    .+++.@      ",
"   .++..+++++++.@  #.++++.@     ",
"  .+...+++.++++..  $%+++++.     ",
" .+++...++.......  &*=++++.     ",
"@.++++..++...+++.. -@@;@.>,     ",
"@.+++++++...+++++.   &-@@@@     ",
"@@.+++++....+++++..             ",
" @@.....@@@@.++++..             ",
"  @@@@@@@  @@.+++.@             ",
" @  @@ @    @@...@@             ",
"     @     @ @@@@@              ",
"                                ",
"               ...              ",
"              .+++.@     .....  ",
"             #.++++.@   .+++++. ",
"             $%+++++.@@.+++..++.",
"       ...    ..++++...++...+++.",
"     ..+++.    ........+++...++.",
"    .++..++.   ...+++..++++..++.",
"   .+...+++.    .+++++.+++++++. ",
"  .+++...++.    .+++++..+++++.@ ",
" @.++++..++.@@  @.+++........@@ ",
" @.+++++++.@@ @ @@.....@@@@@@@  ",
" @@.+++++.@@     @@...@@ @@     ",
"  @@.....@@@      @@@@@   @     ",
"   @@@@@@@  @        @          ",
"  @  @@ @                       ",
"      @                         ",
"                                "};
