/* XPM */
static char * 64*64boss_xpm[] = {
"64 64 12 1",
" 	c #222222",
".	c #483B3A",
"+	c #323232",
"@	c #595757",
"#	c #807B7A",
"$	c #775C55",
"%	c #0E0C0C",
"&	c #271F1B",
"*	c #673931",
"=	c #171516",
"-	c #373334",
";	c #000000",
"      ..        ......  ..            ..        ......  ..      ",
"      ..        ......  ..       ++++++++++++   ......  ..      ",
"  ............................+++@@@@@@@@@####................$$",
"  ..........................++@@@@@@@@@####...................$$",
"..........................++@@@@@@@@#####.....................$$",
".........................+@@@@@@@######.......................$$",
".......................++@@@@@@######.........................$$",
"......................+@@@@@@######...........................$$",
"  ...................+@@@@@#######............................$$",
"  ..................+@@@@###%%%%# ............................$$",
"....................+@@@@#%%%%%%..............................$$",
"....................&&&@#%%%%%%%..............................$$",
"  ...................&&&&%%%%%%%% ..............................",
"  ......................%%%%%%%%% ..............................",
"  ......................%%%%%*%*% ............................$$",
"  ......................%%%%%%%%% ............................$$",
"  ......................%%%%%%%%% ..............................",
"  ......................%%%%%%%%% ..............................",
"........................%%%%%%%%%&&&&.........................$$",
"......................%%%%%%%%%%%%%&&&&.......................$$",
"....................%%%%%%%%%%%%%%%%.&&&&.....................$$",
"...................%%%%%%%%%%%%%%%%%%..&&&&...................$$",
"  ................%%%%%%%%%%%%%%%%%%%....&&&&=..................",
"  ...............%%%%%%%%%%%%%%%%%%%%......&&&&.................",
"  ..............%%%%%%%%%%%%%%%%%%%%-......=-&&&&...............",
"  ..............%%%%%%%%%%%%%%%%%%%=-.....=-+=.&&&&.............",
"  ..............%%%%%%%%%%%%%%%%%%-==-...===.....&&&&.........$$",
"  ..............%%%%%%%%%%%%%%%%%--.--..-=-........&&&&.......$$",
"  ..............%%%%%%%%%%%%%%%$-=-..=-=--...........&&&&.....$$",
"  ..............%%%%%%%%%%%%%%--=--..--=-..............&&&&...$$",
"$$$$$$....$$..$$%%%%%%%%%%%%%-==-$=$$$-=..$$..$$$$$$$$..$&&&&$$$",
"$$$$$$....$$..$$$%%%%%%%%%%$==--$=-$$$....$$..$$$$$$$$..$$$&&$$$",
"      ..        .%%%%%%%%%%==-===-    ..        ......  ..      ",
"      ..        .%%%%%%%%% -== --     ..        ......  ..      ",
"  ...............%%%%%%%%%..===$  ............................$$",
"  ...............%%%%%%%%%.;.==$  ............................$$",
".................%%%%%%%%%..===;..............................$$",
".................%%%%%%%%..===$;..............................$$",
".................%%%%%%%%%.===$;..............................$$",
".................%%%%%%%%%..==;$..............................$$",
"  ...............%%%%%%%%%..=.$$  ............................$$",
"  ................%%%%%%%%..=.$$  ............................$$",
"..................%%%%%%%%..=.$$..............................$$",
"..................%%%%%%%%..=.$$..............................$$",
"  ................%%%%%%%%%.=...  ..............................",
"  .................%%%%%%%%.;...  ..............................",
"  .................%%%%%%%%.;.$$  ............................$$",
"  .................%%%%%%%....$$  ............................$$",
"  .................%%%%%%%%.....  ..............................",
"  .................%%%%%%%......  ..............................",
"...................%%%%%%%....$$..............................$$",
"....................%%%%%.....$$..............................$$",
"....................%%%%%.....$$..............................$$",
"....................%%%%%.....$$..............................$$",
"  ...................%%%%.......  ..............................",
"  ...................%%%........  ..............................",
"  ...................%%%........  ..............................",
"  ....................%%........  ..............................",
"  ....................%%......$$  ............................$$",
"  ....................%%......$$  ............................$$",
"  .....................%......$$  ............................$$",
"  .....................%......$$  ............................$$",
"$$$$$$....$$..$$$$$$$$.%$$$$$$$$$$$$$$....$$..$$$$$$$$..$$$$$$$$",
"$$$$$$....$$..$$$$$$$$..$$$$$$$$$$$$$$....$$..$$$$$$$$..$$$$$$$$"};
