/* XPM */
static char * oioo_spawn_two_xpm[] = {
"32 32 8 1",
" 	c #222222",
".	c #483B3A",
"+	c #775C55",
"@	c #0E0C0C",
"#	c #271F1B",
"$	c #673931",
"%	c #171516",
"&	c #373334",
"      ..        ......  ..      ",
"      ..        ......  ..      ",
"  ............................++",
"  ............................++",
"..............................++",
"..............................++",
"..............................++",
"..............................++",
"  ............................++",
"  ............................++",
"..............................++",
"...@@@@.......................++",
"#@@@@@@.........................",
"#@@@@@@.........................",
"##@@@@@@......................++",
"##@@@@@@......................++",
"@##@$@$@........................",
"@##@@@@@........................",
"@@##@@@@......................++",
"@@##@@@@@@@@..................++",
"@@@##@@@@@@@@@@@@.............++",
"@@@##@@@@@@@@@@...............++",
"@@@@##@@@@@@@@..................",
"@@@@##@@@@@@@...................",
"@@@@@#%%@@@@....................",
"@@@@@&%%%@@@....................",
"@@@@@&&%%@@@..................++",
"@@@@@@&%&@@@..................++",
"@@@@@@@##@@@@.................++",
"@@@@@@@##@@@@.................++",
"@@@@@@.&##@@@@++++++++..++++++++",
"@@@@@&&%##+&@@@+++++++..++++++++"};
