/* XPM */
static char * oioo_one_xpm[] = {
"32 32 10 1",
" 	c #222222",
".	c #483B3A",
"+	c #323232",
"@	c #595757",
"#	c #807B7A",
"$	c #775C55",
"%	c #271F1B",
"&	c #0E0C0C",
"*	c #171516",
"=	c #373334",
"      ..        ......  ..      ",
"++++++++++++    ......  ..      ",
"@@@@@@@@@####.................$$",
"@@@@@@####....................$$",
"@@@#####......................$$",
"######........................$$",
"####..........................$$",
"##............................$$",
"# ............................$$",
"  ............................$$",
"..............................$$",
"..............................$$",
"  ..............................",
"  ..............................",
"  ............................$$",
"  ............................$$",
"  ..............................",
"  ..............................",
"%%%%..........................$$",
"&&%%%%........................$$",
"&&&.%%%%......................$$",
"&&&&..%%%%....................$$",
"&&&&....%%%%*...................",
"&&&&......%%%%..................",
"&&&=......*=%%%%................",
"&&*=.....*=+*.%%%%..............",
"&=**=...***.....%%%%..........$$",
"==.==..=*=........%%%%........$$",
"*=..*=*==...........%%%%......$$",
"==..==*=..............%%%%....$$",
"$*$$$=*...$$..$$$$$$$$..%%%%$$$$",
"*=$$$$....$$..$$$$$$$$..$$%%$$$$"};
