/* XPM */
static char * oioo_d_one_xpm[] = {
"32 32 9 1",
" 	c #222222",
".	c #483B3A",
"+	c #323232",
"@	c #807B7A",
"#	c #595757",
"$	c #775C55",
"%	c #271F1B",
"&	c #171516",
"*	c #373334",
"      ..        ......  ..      ",
"      ++++++++++++....  ..      ",
"  ...@@@@#########+++.........$$",
"  ......@@@@#########++.......$$",
"..........@@@@@########++.....$$",
"............@@@@@@#######+....$$",
"..............@@@@@@######++..$$",
"................@@@@@@######+.$$",
"  ...............@@@@@@@#####+$$",
"  ................@@@@@@@@####+$",
"...................@@@@@@@####+$",
"....................@@@@@@@#%%%$",
"  ...................@@@@%%%%%..",
"  ...................@@%%%%.....",
"  ...................%%%%.....$$",
"  .................%%%%.......$$",
"  ...............%%%%...........",
"  ..............%%%.............",
"..............%%%%............$$",
"............%%%%..............$$",
".........&&%%%................$$",
".......&&&&%..................$$",
"  ....%%%&&.....................",
"* ..%%%%+&......................",
"&*%%%%&&........................",
"%%%%*&*.........................",
"%%*&**........................$$",
" **&*.........................$$",
"  *&..........................$$",
"  ............................$$",
"$$$$$$....$$..$$$$$$$$..$$$$$$$$",
"$$$$$$....$$..$$$$$$$$..$$$$$$$$"};
