/* XPM */
static char * oioo_d_six_xpm[] = {
"32 32 4 1",
" 	c #222222",
".	c #483B3A",
"+	c #775C55",
"@	c #0E0C0C",
"      ..        ......  ..      ",
"      ..        ......  ..      ",
"  ............................++",
"  ............................++",
"..............................++",
"..............................++",
"..............................++",
"..............................++",
"  ............................++",
"  ............................++",
"..............................++",
"..............................++",
"  ..............................",
"  ..............................",
"  ............................++",
"  ............................++",
"  ..............................",
"  ..............................",
"..............................++",
"..............................++",
"..............................++",
"..............................++",
"  ..............................",
"  ..............................",
"  ..............................",
"@@..............................",
"@@@...........................++",
"@@@@..........................++",
"@@..@@........................++",
" @.@@@........................++",
"+@+@@@@...++..++++++++..++++++++",
"+++@@@@...++..++++++++..++++++++"};
