/* XPM */
static char * ooio_attack_xpm[] = {
"32 32 10 1",
" 	c #222222",
".	c #0E0C0C",
"+	c #171516",
"@	c #373334",
"#	c #483B3A",
"$	c #271F1B",
"%	c #775C55",
"&	c #000000",
"*	c #807B7A",
"=	c #323232",
"   .....................+@      ",
"   ....................+@@@     ",
"  #...................$+#+++##%%",
"  #.................@$$$$#@@@#%%",
"###................@+@#$$$$@++%%",
"###..............@@+@@###$$$@++%",
"###.............@++@#+#####$$@@+",
"####..........#++@@#+@#######$$@",
"  ##..........++@+++@#########%+",
"  ##.........+@++#@@##########%%",
"####.........##+++############%%",
"####.........#&#++############%%",
"  ##.........##+++&#############",
"  ###.......##+++#&#############",
"  ###........#+++#&###########%%",
"  ####.......##++&############%%",
"  ####.......##+################",
"  ####.......##+################",
"######.......##+##############%%",
"######.......##+##############%%",
"#######.......#+##############%%",
"#######.......#&##############%%",
"  #####.......#&################",
"  #####......###################",
"  #####.......##################",
"  ####.......###################",
"  ####.......#################%%",
"  #####.....##################%%",
"  #####.....##################**",
"  #####.....##################%=",
"%%%%%%##....##%%%%%%%%##%%%%%%%%",
"%%%%%%##...%##%%%%%%%%##%%%%%%%%"};
