/* XPM */
static char * ooio_spawn_three_xpm[] = {
"32 32 4 1",
" 	c #222222",
".	c #0E0C0C",
"+	c #483B3A",
"@	c #775C55",
"     ...........................",
"................................",
"  ..............................",
"  ++++..........................",
"++++++++++......................",
"++++++++++++++++................",
"++++++++++++++++++++++..........",
"+++++++++++++++++++++++++.......",
"  +++++++++++++++++++++++.......",
"  +++++++++++++++++++++++.......",
"+++++++++++++++++++++++++.......",
"+++++++++++++++++++++++.........",
"  +++++++++++++++++.............",
"  ++++++++++++..................",
"  +++++++++++...................",
"  ++++++++++++++................",
"  ++++++++++++++++++............",
"  +++++++++++++++++++++.........",
"+++++++++++++++++++++++++++.....",
"+++++++++++++++++++++++++.......",
"+++++++++++++++++++.............",
"+++++++++++++...................",
"  ..............................",
"  ++++..........................",
"  +++++++++++...................",
"  ++++++++++++++++++++..........",
"  +++++++++++++++++++++++++.....",
"  +++++++++++++++++++++++++++...",
"  ++++++++++++++++++++++++++++..",
"  ++++++++++++++++++++++++++++..",
"@@@@@@++++@@++@@@@@@@@++@@@@@@@.",
"@@@@@@++++@@++@@@@@@@@++@@@@@@@."};
