/* XPM */
static char * boss_three_xpm[] = {
"32 32 5 1",
" 	c #171516",
".	c #373334",
"+	c #222222",
"@	c #483B3A",
"#	c #775C55",
" .++++@@++++++++@@@@@@++@@++++++",
".+++++@@++++++++@@@@@@++@@++++++",
"++@@@@@@@@@@@@@@@@@@@@@@@@@@@@##",
"++@@@@@@@@@@@@@@@@@@@@@@@@@@@@##",
"@@@@@@@@@@@@@@@@@@@@@@@@@@@@@@##",
"@@@@@@@@@@@@@@@@@@@@@@@@@@@@@@##",
"@@@@@@@@@@@@@@@@@@@@@@@@@@@@@@##",
"@@@@@@@@@@@@@@@@@@@@@@@@@@@@@@##",
"++@@@@@@@@@@@@@@@@@@@@@@@@@@@@##",
"++@@@@@@@@@@@@@@@@@@@@@@@@@@@@##",
"@@@@@@@@@@@@@@@@@@@@@@@@@@@@@@##",
"@@@@@@@@@@@@@@@@@@@@@@@@@@@@@@##",
"++@@@@@@@@@@@@@@@@@@@@@@@@@@@@@@",
"++@@@@@@@@@@@@@@@@@@@@@@@@@@@@@@",
"++@@@@@@@@@@@@@@@@@@@@@@@@@@@@##",
"++@@@@@@@@@@@@@@@@@@@@@@@@@@@@##",
"++@@@@@@@@@@@@@@@@@@@@@@@@@@@@@@",
"++@@@@@@@@@@@@@@@@@@@@@@@@@@@@@@",
"@@@@@@@@@@@@@@@@@@@@@@@@@@@@@@##",
"@@@@@@@@@@@@@@@@@@@@@@@@@@@@@@##",
"@@@@@@@@@@@@@@@@@@@@@@@@@@@@@@##",
"@@@@@@@@@@@@@@@@@@@@@@@@@@@@@@##",
"++@@@@@@@@@@@@@@@@@@@@@@@@@@@@@@",
"++@@@@@@@@@@@@@@@@@@@@@@@@@@@@@@",
"++@@@@@@@@@@@@@@@@@@@@@@@@@@@@@@",
"++@@@@@@@@@@@@@@@@@@@@@@@@@@@@@@",
"++@@@@@@@@@@@@@@@@@@@@@@@@@@@@##",
"++@@@@@@@@@@@@@@@@@@@@@@@@@@@@##",
"++@@@@@@@@@@@@@@@@@@@@@@@@@@@@##",
"++@@@@@@@@@@@@@@@@@@@@@@@@@@@@##",
"######@@@@##@@########@@########",
"######@@@@##@@########@@########"};
