/* XPM */
static char * oooi_d_four_xpm[] = {
"32 32 3 1",
" 	c #222222",
".	c #483B3A",
"+	c #775C55",
"      ..        ......  ..      ",
"      ..        ......  ..      ",
"  ............................++",
"  ............................++",
"..............................++",
"..............................++",
"..............................++",
"..............................++",
"  ............................++",
"  ............................++",
"..............................++",
"..............................++",
"  ..............................",
"  ..............................",
"  ............................++",
"  ............................++",
"  ..............................",
"  ..............................",
"..............................++",
"..............................++",
"..............................++",
"..............................++",
"  ..............................",
"  ..............................",
"  ..............................",
"  ..............................",
"  ............................++",
"  ............................++",
"  ............................++",
"  ............................++",
"++++++....++..++++++++..++++++++",
"++++++....++..++++++++..++++++++"};
