/* XPM */
static char * oooi_d_five_xpm[] = {
"32 32 4 1",
" 	c #0E0C0C",
".	c #222222",
"+	c #483B3A",
"@	c #775C55",
"        ........++++++..++......",
"        ........++++++..++......",
"        ++++++++++++++++++++++@@",
"        ++++++++++++++++++++++@@",
"       +++++++++++++++++++++++@@",
"      ++++++++++++++++++++++++@@",
"     +++++++++++++++++++++++++@@",
"  ++++++++++++++++++++++++++++@@",
"..++++++++++++++++++++++++++++@@",
"..++++++++++++++++++++++++++++@@",
"++++++++++++++++++++++++++++++@@",
"++++++++++++++++++++++++++++++@@",
"..++++++++++++++++++++++++++++++",
"..++++++++++++++++++++++++++++++",
"..++++++++++++++++++++++++++++@@",
"..++++++++++++++++++++++++++++@@",
"..++++++++++++++++++++++++++++++",
"..++++++++++++++++++++++++++++++",
"++++++++++++++++++++++++++++++@@",
"++++++++++++++++++++++++++++++@@",
"++++++++++++++++++++++++++++++@@",
"++++++++++++++++++++++++++++++@@",
"..++++++++++++++++++++++++++++++",
"..++++++++++++++++++++++++++++++",
"..++++++++++++++++++++++++++++++",
"..++++++++++++++++++++++++++++++",
"..++++++++++++++++++++++++++++@@",
"..++++++++++++++++++++++++++++@@",
"..++++++++++++++++++++++++++++@@",
"..++++++++++++++++++++++++++++@@",
"@@@@@@++++@@++@@@@@@@@++@@@@@@@@",
"@@@@@@++++@@++@@@@@@@@++@@@@@@@@"};
