/* XPM */
static char * oooi_spawn_four_xpm[] = {
"32 32 8 1",
" 	c #0E0C0C",
".	c #373334",
"+	c #171516",
"@	c #222222",
"#	c #271F1B",
"$	c #483B3A",
"%	c #775C55",
"&	c #000000",
"     .++.@##@    $$$$$@@$$@@@@@@",
"   @++..@+##@@    $$$$@@$$@@@@@@",
"   ++.+++.$##$$    $$$$$$$$$$$%%",
"  $.++$..$$##$$$$   $$$$$$$$$$%%",
"  $$+++$$$$$##$$$$$  $$$$$$$$$%%",
"  $&$++$$$$$##$$$$$$  $$$$$$$$%%",
"  $$+++&$$$$$##$$$$$$$$$$$$$$$%%",
" $$+++$&$$$$$##$$$$$$$$$$$$$$$%%",
"  $+++$&$$$$$$##$$$$$$$$$$$$$$%%",
"       $$$$$$$##$$$$$$$$$$$$$$%%",
"          $$$$$$$$$$$$$$$$$$$$%%",
"                    $$$$$$$$$$%%",
"                  $$$$$$$$$$$$$$",
"      $$$$$$$$$$$$$$$$$$$$$$$$$$",
"   $+$$$$$$$$$$$$$$$$$$$$$$$$$%%",
"   $&$$$$$$$$$$$$$$$$$$$$$$$$$%%",
"   $&$$$$$$$$$$$$$$$$$$$$$$$$$$$",
"     $$$$$$$$$$$$$$$$$$$$$$$$$$$",
"       $$$$$$$$$$$$$$$$$$$$$$$%%",
"        $$$$$$$$$$$$$$$$$$$$$$%%",
"   $$$$$$$$$$$$$$$$$$$$$$$$$$$%%",
" $$$$$$$$$$$$$$$$$$$$$$$$$$$$$%%",
" @$$$$$$$$$$$$$$$$$$$$$$$$$$$$$$",
" @$$$$$$$$$$$$$$$$$$$$$$$$$$$$$$",
" @$$$$$$$$$$$$$$$$$$$$$$$$$$$$$$",
"@@$$$$$$$$$$$$$$$$$$$$$$$$$$$$$$",
"@@$$$$$$$$$$$$$$$$$$$$$$$$$$$$%%",
"@@$$$$$$$$$$$$$$$$$$$$$$$$$$$$%%",
"@@$$$$$$$$$$$$$$$$$$$$$$$$$$$$%%",
"@@$$$$$$$$$$$$$$$$$$$$$$$$$$$$%%",
"%%%%%%$$$$%%$$%%%%%%%%$$%%%%%%%%",
"%%%%%%$$$$%%$$%%%%%%%%$$%%%%%%%%"};
