/* XPM */
static char * 0001_tree_slimbiome_xpm[] = {
"32 32 12 1",
" 	c #347B2C",
".	c #53A03B",
"+	c #71193C",
"@	c #114517",
"#	c #082B0C",
"$	c #D18075",
"%	c #9E2E46",
"&	c #342319",
"*	c #21110D",
"=	c #417A30",
"-	c #503625",
";	c #755338",
"  . .++... .. ..++ @@@#.........",
"....+$%+. .   ...   @@#.........",
"....+%%+ ...   ..    @#.........",
".....++ ....      @  #..........",
".....     ..@  @  @@@#..........",
"......  @  @    @+@@#...........",
"... .. @@@@@    ++@#............",
"..      @++@  @++##.............",
"     @  +%+@@@@@@#..............",
"  @  @@@++##@@@@@#..............",
" @@@@@@@######@@#...............",
"@@#@@@@#########................",
"@######&*==##====...............",
"#&&&&&&&*=========..............",
"-&&&&-&&-*=========.............",
"--&&--&&;*=========.............",
";-&-;--&-;*=========............",
";---;;-&&-&*========............",
"--;-;;-&&;;&*=======............",
"-;;;;;-&&-;;*=======............",
"-;&;;;;-*&-;*=======............",
";&&-;-;;**--*=======............",
";&*&-;;;;*==========............",
"-&*&-;;;;;*========.............",
"&***--;;;-*========.............",
"&===*-----*=======..............",
"==================..............",
"=================...............",
"================................",
"===============.................",
"=============...................",
"====...====....................."};
