/* XPM */
static char * 1000_tree_xpm[] = {
"32 32 5 1",
" 	c #509B66",
".	c #082B0C",
"+	c #347B2C",
"@	c #53A03B",
"#	c #114517",
"                             ...",
"                            .+@@",
"                      .... .+@@@",
"                     .+@@+.+@@@@",
"                    .+@@@@@+@@@@",
"                    .+@@@@@@+@@@",
"                 ...##@@@@@@@@@@",
"                .++#@@+@@@@@@@@@",
"               .+@@+@@@@@@@@@@@@",
"               .@@@@@@@@@@@@@@@@",
"              .+@@@@@@@@@@@@@@@@",
"             .+++@@@@@@@@@@@@@@+",
"             .+++@@@@@@@@@@@@@@@",
"            .+++@@@@@@@@@@@@@@@@",
"            .+@+@@@@@@@@@@@@@@@@",
"            .@@@+@@#@@@@@@@@@@@@",
"            .+@@++##@@@@@@@@@@@@",
"            .++++##+@@@@@@@@@@@@",
"             .####+++@@@@@@@@@@@",
"            .##+#+@@+@@@@@@@@@@@",
"           .#@@+#+@@@+@@@@@@@@@@",
"           .+@@+#++@@@@@@@@@@@@@",
"          .+@@++##+@@@@@@@@@@@@@",
"          .+@@@@+#+@@@@@@+@@@@@@",
"          .+@@@@@++@@@@@@+#@@@@@",
"          .#+@@@@+##@@@@+++##+@@",
"           .#++@@@@##@@+@@@@##+@",
"           .####+@@@##++@@@@@+#+",
"            .#+@#+@@+++@@@@@@@++",
"            .#@@++++#+@@@@@@@@@+",
"           .##@@@+###+@@+@@@@@++",
"           .#+#++##@+#+++@@@@@++"};
