/* XPM */
static char * 1000_tree_slimbiome_xpm[] = {
"32 32 7 1",
" 	c #53A03B",
".	c #082B0C",
"+	c #347B2C",
"@	c #71193C",
"#	c #D18075",
"$	c #114517",
"%	c #9E2E46",
"                             ...",
"                            .+  ",
"                      .... .+   ",
"                     .+  +.+    ",
"                    .+@@   +    ",
"                    .@#$$   +   ",
"                 ...$$$+        ",
"                .++$  +         ",
"               .+  +            ",
"               .                ",
"              .+                ",
"             .+++              +",
"             .+++               ",
"            .+++                ",
"            .+ +                ",
"            .   +  $            ",
"            .+  ++$$            ",
"            .++@@$$+            ",
"             .@#%$+++           ",
"            .$@%$+  +           ",
"           .$  +$+   +          ",
"           .+  +$++             ",
"          .+  ++$$+             ",
"          .+    +$+      +      ",
"          .+     ++      +$     ",
"          .$+    +$$    +++$$+  ",
"           .$++  @#$$  +    $$+ ",
"           .$$$$+@%%@$++     +$+",
"            .$+ $+@@+++       ++",
"            .$  ++++$+         +",
"           .$$   +$$$+  +     ++",
"           .$+$++$$ +$+++     ++"};
