/* XPM */
static char * apple_tree_xpm[] = {
"64 64 13 1",
" 	c #509B66",
".	c #082B0C",
"+	c #347B2C",
"@	c #53A03B",
"#	c #71193C",
"$	c #D18075",
"%	c #114517",
"&	c #9E2E46",
"*	c #342319",
"=	c #21110D",
"-	c #3B7251",
";	c #503625",
">	c #755338",
"                             .....                              ",
"                            .+@@@+..  ....                      ",
"                      .... .+@@@@@@+..+@@@.                     ",
"                     .+@@+.+@@@@@@@@@+@@@@@....                 ",
"                    .+##@@@+@@@@@@@@@+@@@@@.@@+.                ",
"                    .#$%%@@@+@@@@@@@@@@@@@@@@@@+.               ",
"                 ...%%%+@@@@@@@@@@@@@@@@@@@@@@@+.               ",
"                .++%@@+@@@@@@@@@@@@@@@@@@@@@@@@%%.              ",
"               .+@@+@@@@@@@@@@@@@@@@@@@@@@@@@@%@@.              ",
"               .@@@@@@@@@@@@@@@@@@@@@@@@@@@@@@@@@+.             ",
"              .+@@@@@@@@@@@@@@@@@@@@@@@+@@@@@@@@@+.             ",
"             .+++@@@@@@@@@@@@@@++%+@+%+@@@@@@@@@@@+.            ",
"             .+++@@@@@@@@@@@@@@@@+%%%++@@@@@@@@@@@+.            ",
"            .+++@@@@@@@@@@@@@@@@@@@+%+@@@@@@@@@@@@@.            ",
"            .+@+@@@@@@@@@@@@@@@@@@@@+@@@@@@@@@@@@@@+.           ",
"            .@@@+@@%@@@@@@@@@@@@@@@@@@@@@@@@@@@@@@@@.           ",
"            .+@@++%%@@@@@@@@@@@@@@@@@@@@@@@@@@@@@@@@.           ",
"            .++##%%+@@@@@@@@@@@@@@@@@@@@@@@@@@@@@@@+.           ",
"             .#$&%+++@@@@@@@@@@@@@@@@@@@@@@@@@@@@@@.            ",
"            .%#&%+@@+@@@@@@@@@@@@@@@@@@@@@@@@@@@@@+.            ",
"           .%@@+%+@@@+@@@@@@@@@@@@@@@@@@@@@@@@@@@+&#.           ",
"           .+@@+%++@@@@@@@@@@@@@@@@@@@@@@@@@@@@@+&&#..          ",
"          .+@@++%%+@@@@@@@@@@@@@@@@@@@@@@@@@@@@++##@+.          ",
"          .+@@@@+%+@@@@@@+@@@@@@@@@@@@@@@@@@@@++%@@@+.          ",
"          .+@@@@@++@@@@@@+%@@@@@@@@@@@@@@@@@@@%%%%+++.          ",
"          .%+@@@@+%%@@@@+++%%+@@@@+%@@@@@@@@@@@%@@++.           ",
"           .%++@@#$%%@@+@@@@%%+@@+%&#@@@@@@@@@@+@@@+.           ",
"           .%%%%+#&&#%++@@@@@+%++%&&#@@@@@@@@@@@+@@++.          ",
"            .%+@%+##+++@@@@@@@+++@##@@@@@@@@@@@@+++++.          ",
"            .%@@++++%+@@@@@@@@@+@@@@@@@@@@@@@@@@+%%+%.          ",
"           .%%@@@+%%%+@@+@@@@@++@@@@@@@@@@@@+@@%%&#+%%.         ",
"           .%+%++%%@+%+++@@@@@+++@@@@@@@@@@@@+%%&&#+%%.         ",
"           .+@@%%%@@@@++@@@@@+@@++@+@##@@@+@@+@@##+%%%.         ",
"           .+@@#$%@@@@@+@@+@@@@@@@@@#$&#@+@+++@@@+++%%.         ",
"           .%++#&&%@+@@+++++@@@@@@@@#&&#+@@@+++@@++++%.         ",
"            .%%%##%%%+++++&#++@@@@@@@##+@@@@++++++%++.          ",
"             .%%+@@%++++#&&#@+@@@@@@@+++++@@%++%++%%%.          ",
"             .%.%@@+@+++%##@@+%@@@@@@@++%++%++++%#%%.           ",
"              .#.%+@@@+@+%@@++%@@@@+@@+%%%%%++++##%.            ",
"               .%%%@@%@@@+++++%+@@++++++%##%++%##..             ",
"               .%%%%%+@@@+%++%+++++++%++#&#%%%%%%.              ",
"                .%%.%++++%.%%%++++%++%%%##..%%%%%.              ",
"                 ...%%%%%%..%%+++%%%%%%%......%%.               ",
"                   .%%%%%...%%%%%%.%%%%.........                ",
"                    .........%%%%......*=--..----               ",
"                     --==**;.....*******=---------              ",
"                   ---=>;*;;;**;;****;**;=---------             ",
"                  ---=>>**;*;*>>;;**;;**>=---------             ",
"                 ----=>=*>;;*>>>>;*;>;;*;>=---------            ",
"                -----==*>>>;*>>>>;;;>>;**;*=--------            ",
"                ------=>>;;;=;>;;;>;>>;**>>*=-------            ",
"                -----=>>>>;*=>>>;>>>>>;**;>>=-------            ",
"                -----=>>>>;=;>>>;>*>>>>;=*;>=-------            ",
"                -----=>>>;*=>>>>>**;>;>>==;;=-------            ",
"                -----=;;;*=;>>>;>*=*;>>>>=----------            ",
"                ----------=>>>;;;*=*;>>>>>=--------             ",
"                 ---------=>>>;;*===;;>>>;=--------             ",
"                 ---------=;;;;;*---=;;;;;=-------              ",
"                  --------------------------------              ",
"                  -------------------------------               ",
"                   -----------------------------                ",
"                    ---------------------------                 ",
"                     ------------------------                   ",
"                         -----------   ----                     "};
