/* XPM */
static char * bed_xpm[] = {
"32 32 9 1",
" 	c #755338",
".	c #503625",
"+	c #21110D",
"@	c #9D7658",
"#	c #677598",
"$	c #B6BEC8",
"%	c #8F9AB0",
"&	c #BC4952",
"*	c #9E2E46",
"            .               .   ",
"  +++       .++++           .   ",
".+@@@++++++++@@@+... ..    .....",
" +@@@ @@@@@@ @@@+               ",
" +   ........   +               ",
" +  #$$$$$$$$#  +               ",
" +  $$$$$$$$$$  +    .          ",
".+#%$$$$$$$$$$%#+....... ..    .",
" +#&&&&&&&&&&&&#+.              ",
" +&&&&&&&&&&&&&&+               ",
" +&&&&&&&&&&&&&&+               ",
" +&&&&&&&&&&&&&&+               ",
".+&&&&&&&&&&&&&&+..   ..........",
" +&&&&&&&&&&&&&&+           .   ",
" +&&&&&&&&&&&&&&+               ",
" +&&&&&&&&&&&&&&+               ",
" +&&&&&&&&&&&&&&+           .   ",
" +&&&&&&&&&&&&&&+           .   ",
".+&&&&&&&&&&&&&&+... ..    .....",
" +&&&&&&&&&&&&&&+               ",
" +&&&&&&&&&&&&&&+               ",
" +&&&&&&&&&&&&&&+               ",
" +&&&&&&&&&&&&&&+    .          ",
".+&&&&&&&&&&&&&&+....... ..    .",
" +&************&+.              ",
" +**************+               ",
" +**************+               ",
" +..............+               ",
".+              +..   ..........",
"  +...++++++...+            .   ",
"  +...++++++...+                ",
"                                "};
