/* XPM */
static char * grave_top_xpm[] = {
"32 32 6 1",
" 	c #53A03B",
".	c #21110D",
"+	c #8F9AB0",
"@	c #677598",
"#	c #414B66",
"$	c #3D7636",
"                                ",
"                                ",
"                                ",
"                                ",
"                                ",
"                                ",
"                                ",
"                                ",
"            ........            ",
"           .++++++++.           ",
"          .++++++++++.          ",
"          .+@@@@@@@@+.          ",
"          .@@######@@.          ",
"          .@#@@@@@@#@.          ",
"          .@#@#@@#@#@.          ",
"          .@#@@@@@@#@.          ",
"          .@##@@@@##@.          ",
"         .+@@#@##@#@@+.         ",
"         .+@@@@@@@@@@+.         ",
"         .++++++++++++.         ",
"        $.@@@@@@@@@@@@.$        ",
"        $.@@@@@@@@@@@@.$        ",
"        $$$$$$$$$$$$$$$$        ",
"         $$$$$$$$$$$$$$         ",
"                                ",
"                                ",
"                                ",
"                                ",
"                                ",
"                                ",
"                                ",
"                                "};
