/* XPM */
static char * long_log_right1_xpm[] = {
"32 32 7 1",
" 	c #509B66",
".	c #21110D",
"+	c #755338",
"@	c #9D7658",
"#	c #503625",
"$	c #3B7251",
"%	c #342319",
"                                ",
"                                ",
"                                ",
"                                ",
"                                ",
"                                ",
"                                ",
"                                ",
"                                ",
"                                ",
"                                ",
"..................              ",
"+++++++++++++...++.             ",
"++++++++++++.+@@.++.            ",
"+++++++++++.++@+.++.            ",
"+++++++++++++##.++++.           ",
"++++++++++++##.+++++.           ",
"+++++##+++++++++++++.           ",
"###++++++++###+++++#.           ",
"++++#######++++++##.$$          ",
"#########+++++####%.$$          ",
"############%%%%%%.$$$          ",
"%%%%%%%%%%%%$$$$$$$$$           ",
"$$$$$$$$$$$$$$                  ",
"                                ",
"                                ",
"                                ",
"                                ",
"                                ",
"                                ",
"                                ",
"                                "};
