/* XPM */
static char * table_xpm[] = {
"32 32 12 1",
" 	c #755338",
".	c #503625",
"+	c #21110D",
"@	c #9D7658",
"#	c #BC4952",
"$	c #E9CE7C",
"%	c #E1DDD6",
"&	c #D18075",
"*	c #677598",
"=	c #000000",
"-	c #563E35",
";	c #3B2B2B",
"            .               .   ",
"            .               .   ",
".... ..    ......... ..    .....",
"                                ",
"                                ",
"                                ",
"     .               .          ",
"........ ..    ......... ..    .",
" ++++++++++++++++++++++++++++++ ",
"+@@@@@@@@@@@@@@@@@@@@@+#+@@@@@@+",
"+@@@@@@@@@@@......@@@+$#+@@@@@@+",
"+@@@@@@@@@@.%%%%%%.@+$&+@@@@@@@+",
"+@@@@@@@@@@.%*%**%%.=&+@@@@@@@@+",
"+@@@@@@@@@@@.%*%%**.=+@@@@@@@@@+",
"+@@@@@@@@@@@.%%%**%%.@@@@@@@@@@+",
"+@@@@@@@@@@@@.%*%%%%.@@@@@@@@@@+",
"+@@@@@@@@@@@@@.......@@@@@@@@@@+",
"+@@@@@@@@@@@@@@@@@@@@@@@@@@@@@@+",
"+                              +",
"+                              +",
"-+...++++++++++++++++++++++...+-",
"-+...+--------------------+...+-",
"-+...+---------------;----+...+-",
".;;;;;;;-;;----;;;;;;;;;-;;----.",
" .               .              ",
"                                ",
"                                ",
"                                ",
"...   .............   ..........",
"            .               .   ",
"                                ",
"                                "};
