/* XPM */
static char * 010010010_right1_xpm[] = {
"32 32 6 1",
" 	c #509B66",
".	c #296640",
"+	c #21110D",
"@	c #755338",
"#	c #082B0C",
"$	c #503625",
"                .+@#..          ",
"                ..+$#.          ",
"                 .+#...         ",
"                 +@#.           ",
"                 +@#.           ",
"                .+#.            ",
"                .+#.            ",
"                .+#.            ",
"                +$#..           ",
"                +$$#...         ",
"                +$@@#.          ",
"               .+@@#..          ",
"               .+@@#.           ",
"               .+@@#.           ",
"               ..+@#.           ",
"                .+@#..          ",
"                 +@@#.          ",
"                 .+$#.          ",
"                 .+#...         ",
"                 +@#.           ",
"                 +@#.           ",
"                .+#.            ",
"                .+#.            ",
"                .+#.            ",
"                +$#..           ",
"                +$$#...         ",
"                +$@@#.          ",
"               .+@@#..          ",
"               .+@@#.           ",
"               .+@@#.           ",
"               ..+@#.           ",
"                .+@#..          "};
