/* XPM */
static char * 010011000_xpm[] = {
"32 32 6 1",
" 	c #509B66",
".	c #296640",
"+	c #082B0C",
"@	c #503625",
"#	c #21110D",
"$	c #755338",
"         ...+@@#                ",
"          .+$$@#.               ",
"           .+$$#.               ",
"            .+$#                ",
"            .+$#                ",
"            .+#.                ",
"           ..+#.                ",
"           .+@#.                ",
"          .+@#..                ",
"          .+$#.                 ",
"           .+$#                 ",
"            .+#                 ",
"            .+#                 ",
"            .+#.                ",
"            .+#.                ",
"            .+@#.               ",
"            .+$$#               ",
"           ...+$#               ",
"             ..+##      ##     #",
"              ....#..###..### #.",
"              .    ##........##.",
"                     .   .   . .",
"                                ",
"                                ",
"                                ",
"                                ",
"                                ",
"                                ",
"                                ",
"                                ",
"                                ",
"                                "};
