/* XPM */
static char * 010110000_xpm[] = {
"32 32 6 1",
" 	c #509B66",
".	c #21110D",
"+	c #503625",
"@	c #755338",
"#	c #082B0C",
"$	c #296640",
"                .+@@#$          ",
"               $.@@#$$          ",
"               $.@@#$           ",
"               $.@@#$           ",
"               $$.@#$           ",
"                $.@#$$          ",
"                 .@@#$          ",
"                 $.+#$          ",
"                 $.#$$$         ",
"                 .@#$           ",
"                 .@#$           ",
"                 .#$            ",
"                $.#$            ",
"                $.#$            ",
"                $.@#$           ",
"                $.+#$           ",
"               $.+#$$$          ",
"..      ..     ..#$$            ",
"$$.  ...$$...$.$$$$             ",
"   ..$$$$$$$$..   $             ",
"     $   $   $                  ",
"                                ",
"                                ",
"                                ",
"                                ",
"                                ",
"                                ",
"                                ",
"                                ",
"                                ",
"                                ",
"                                "};
