/* XPM */
static char * corner_b_left_xpm[] = {
"32 32 6 1",
" 	c #000000",
".	c #222222",
"+	c #AA8D7A",
"@	c #775C55",
"#	c #D3BFA9",
"$	c #483B3A",
"                     .+++.@@@@@@",
"                     .#++.@@@@@@",
"                     .#++.$$$$@@",
"                     .#++.$$$$@@",
"                     .#++.$$$$@@",
"                     .#++.$$$$@@",
"                     .....$$$$$$",
"                     .#+$.$$$$$$",
"                     .#++.$$$$$$",
"                     .#++.$$$$$$",
"                     .#++.$$$$@@",
"                     .#++.$$$$@@",
"                     ...........",
"                     .#+++++.#++",
"                     .#+++++.#++",
"                     .#+++++.#++",
"                     ...........",
"                     ...@@.@@@@.",
"                     .$$$$.$$$$.",
"                     .$$.$.$.$$.",
"                     ...........",
"                     .@@@.@@@@.@",
"                     .$$$.$$$.$$",
"                     .$.$.$$$.$$",
"                     ...........",
"                     .@@@@.@@.@@",
"                     .$$$$.$$.$$",
"                     .$$$$$$$.$$",
"                     ...........",
"                                ",
"                                ",
"                                "};
