/* XPM */
static char * 010010010_xpm[] = {
"32 32 8 1",
" 	c #509B66",
".	c #21110D",
"+	c #503625",
"@	c #755338",
"#	c #9D7658",
"$	c #3B7251",
"%	c #243F3B",
"&	c #2D5443",
"            .++@+@@+.           ",
"            .+@###@+.           ",
"            .+.###.+.           ",
"            .+.###.+.$          ",
"           $.+.###.+.$          ",
"          $$$..###..$$$         ",
"            $$.###.$$           ",
"             $.###.$            ",
"              .###.             ",
"             .......            ",
"            .@#####@.           ",
"           .@##@@@##@.          ",
"           .@##@@@##@.          ",
"           .+@#####@+.          ",
"           ..+@@@@@+..          ",
"            .........           ",
"            .++@+@@+.           ",
"            .+@###@+.           ",
"            .+.###.+.           ",
"           $.+.###.+.%          ",
"           $.+.###.+.%          ",
"          $$$..###..%%%         ",
"            $$.###.%%           ",
"             $.###.&            ",
"              .###.             ",
"             .......            ",
"            .@#####@.           ",
"           .@##@@@##@.          ",
"           .@##@@@##@.          ",
"           .+@#####@+.          ",
"           ..+@@@@@+..          ",
"            .........           "};
