/* XPM */
static char * 010110000_xpm[] = {
"32 32 7 1",
" 	c #509B66",
".	c #21110D",
"+	c #503625",
"@	c #755338",
"#	c #9D7658",
"$	c #3B7251",
"%	c #2D5443",
"            .++@+@@+.           ",
"            .+@###@+.           ",
"            .+.###.+.           ",
"           $.+.###.+.%          ",
"           %.+.###.+.%          ",
"          $%%..###..%%%         ",
"            %%.###.%%           ",
"             $.###.$            ",
"              .###.             ",
"....         .......            ",
"###@.       .@#####@.           ",
"@@##@.     .@##@@@##@.          ",
"@@##@.     .@##@@@##@.          ",
"###@+.     .+@#####@+.          ",
"@@@+.........+@@@@@+..          ",
".....#######.........           ",
"+@@+.+@@+++@.++@+@@+.           ",
"@+@+.@++++@@.+@@@+@+.           ",
"@+@+.+++@@+@.+@@@+@+.           ",
"@@@+.........+@+@@@+.%          ",
"@@++.$     %.++.@@++.%          ",
"+.+.$$$   %%%.+.+.+.%%%         ",
"$$$$$       %%%%%%%%%           ",
"   $         %     %            ",
"                                ",
"                                ",
"                                ",
"                                ",
"                                ",
"                                ",
"                                ",
"                                "};
